<svg width="46" height="44" viewBox="0 0 46 44" fill="none" xmlns="http://www.w3.org/2000/svg">
<path d="M40.2445 23.6917C40.2415 23.3195 40.0916 22.9636 39.8274 22.7014C39.5632 22.4393 39.2061 22.2922 38.8339 22.2922C38.4617 22.2922 38.1046 22.4393 37.8403 22.7014C37.5761 22.9636 37.4262 23.3195 37.4232 23.6917C37.4232 23.8343 37.4799 23.9711 37.5808 24.072C37.6816 24.1729 37.8184 24.2295 37.9611 24.2295C38.1037 24.2295 38.2405 24.1729 38.3414 24.072C38.4422 23.9711 38.4989 23.8343 38.4989 23.6917C38.5004 23.6038 38.5363 23.52 38.5989 23.4584C38.6616 23.3967 38.746 23.3622 38.8339 23.3622C38.9218 23.3622 39.0061 23.3967 39.0688 23.4584C39.1314 23.52 39.1674 23.6038 39.1688 23.6917C39.1688 23.8343 39.2255 23.9711 39.3263 24.072C39.4272 24.1729 39.564 24.2295 39.7067 24.2295C39.8493 24.2295 39.9861 24.1729 40.087 24.072C40.1878 23.9711 40.2445 23.8343 40.2445 23.6917Z" fill="#501464"/>
<path d="M37.5813 26.5808C37.296 26.8654 36.9095 27.0252 36.5065 27.0252C36.1036 27.0252 35.7171 26.8654 35.4318 26.5808C35.3819 26.5308 35.3226 26.4912 35.2573 26.4642C35.1921 26.4372 35.1221 26.4232 35.0515 26.4232C34.9809 26.4233 34.9109 26.4372 34.8457 26.4642C34.7804 26.4912 34.7211 26.5309 34.6712 26.5808C34.6212 26.6308 34.5816 26.6901 34.5546 26.7553C34.5276 26.8206 34.5137 26.8905 34.5137 26.9611C34.5137 27.0318 34.5276 27.1017 34.5546 27.167C34.5817 27.2322 34.6213 27.2915 34.6712 27.3415C35.1584 27.8274 35.8184 28.1004 36.5065 28.1004C37.1946 28.1004 37.8546 27.8274 38.3418 27.3415C38.3924 27.2917 38.4327 27.2324 38.4602 27.1669C38.4878 27.1015 38.5022 27.0313 38.5025 26.9603C38.5028 26.8893 38.489 26.8189 38.462 26.7533C38.4349 26.6876 38.3952 26.628 38.345 26.5777C38.2948 26.5275 38.2351 26.4878 38.1695 26.4607C38.1038 26.4337 38.0335 26.4199 37.9625 26.4202C37.8915 26.4205 37.8212 26.4348 37.7558 26.4623C37.6904 26.4899 37.6311 26.5302 37.5813 26.5808Z" fill="#501464"/>
<path d="M43.84 33.8678C44.2327 32.5859 43.7518 31.0368 43.6809 30.8217C43.6714 30.7839 43.6553 30.7481 43.6334 30.7159C43.5975 30.6384 43.3749 30.0469 44.3792 29.2231C44.7783 28.9573 45.0609 28.5491 45.1691 28.0819C45.3006 27.4846 45.143 26.8433 44.6749 26.1755C44.3928 25.774 44.2425 25.2947 44.2446 24.804V24.7532C44.2399 24.2591 44.3252 23.7682 44.4966 23.3047C44.8267 22.4252 44.8295 21.4563 44.5044 20.5749L44.4966 20.5627C44.3393 20.1365 44.2346 19.6926 44.185 19.241C44.1081 18.5167 43.9036 17.8116 43.581 17.1585C43.4256 16.843 43.2696 16.5024 43.0763 16.0539C42.8397 15.5055 42.386 14.752 41.5675 14.2762C41.2519 14.0934 40.9074 13.9661 40.5487 13.8997C40.7966 13.5127 40.9283 13.0627 40.9283 12.6031V2.83952C40.9283 2.19664 40.6729 1.58009 40.2183 1.1255C39.7637 0.670912 39.1472 0.415527 38.5043 0.415527H7.49571C6.85282 0.415527 6.23627 0.670912 5.78168 1.1255C5.3271 1.58009 5.07171 2.19664 5.07171 2.83952V12.5696C5.07362 13.1596 5.28699 13.7293 5.67308 14.1755C6.05918 14.6216 6.59242 14.9146 7.17605 15.0012L6.38604 15.3677C6.33829 15.3063 6.27712 15.2565 6.20721 15.2223C6.13729 15.1882 6.06048 15.1704 5.98265 15.1705C5.6031 15.1712 5.22741 15.2468 4.87706 15.3928C4.52671 15.5388 4.20858 15.7524 3.94083 16.0214C3.67308 16.2905 3.46097 16.6096 3.31663 16.9606C3.17229 17.3117 3.09854 17.6877 3.0996 18.0673V22.8886C3.09529 22.9654 3.10777 23.0422 3.13618 23.1136C3.10749 23.1305 3.07226 23.1478 3.04456 23.167C2.86999 23.2864 2.72219 23.4409 2.61055 23.6206C2.49891 23.8003 2.42588 24.0012 2.3961 24.2107C2.34906 24.5493 2.41603 24.8939 2.58643 25.1903C2.75684 25.4867 3.02102 25.718 3.33733 25.8477C3.51004 25.9197 3.69506 25.9576 3.88217 25.9592C3.92905 27.9449 5.07171 29.6774 6.59562 30.6337V31.0729H6.23705V31.0562C6.14422 31.0564 6.0529 31.0797 5.97136 31.1241C5.88981 31.1684 5.82061 31.2324 5.77002 31.3103L4.74004 32.9637C4.70551 33.0122 4.68076 33.0671 4.66716 33.1251C4.65952 33.1888 4.64754 33.2519 4.6313 33.314H3.99413C2.06747 33.3139 0.5 34.9157 0.5 36.8424V43.2641C0.5 43.4068 0.556666 43.5436 0.657532 43.6444C0.758398 43.7453 0.895202 43.802 1.03785 43.802H17.9491C18.095 43.8031 18.2357 43.7477 18.3417 43.6475C18.4477 43.5472 18.5109 43.4099 18.5179 43.2641V36.8424C18.5112 35.9092 18.1378 35.0162 17.4782 34.356C16.8187 33.6958 15.9259 33.3215 14.9928 33.3139H14.3555C14.3407 33.2517 14.3296 33.1886 14.3224 33.125C14.3098 33.0644 14.286 33.0068 14.2521 32.9551L13.2324 31.3057C13.1848 31.2289 13.1183 31.1657 13.0392 31.122C12.9602 31.0783 12.8712 31.0557 12.7809 31.0562V31.0729H12.3327V30.6337C13.1495 30.1518 13.8301 29.4697 14.3101 28.6518C14.7902 27.8339 15.054 26.9071 15.0765 25.959C15.2681 25.9563 15.4575 25.9187 15.6356 25.8481C15.9523 25.7186 16.2171 25.4875 16.3882 25.1912C16.5593 24.8949 16.6271 24.5501 16.5809 24.211C16.5527 24.0021 16.4813 23.8013 16.3711 23.6216C16.2609 23.4419 16.1144 23.2872 15.9409 23.1673C15.7722 23.0536 15.5811 22.9772 15.3805 22.9432V19.7212C15.3798 18.9444 15.2129 18.1767 14.891 17.4698C14.569 16.7628 14.0995 16.1329 13.514 15.6225C13.3577 15.4869 13.1937 15.3604 13.0229 15.2437C13.335 15.0896 13.6804 15.0151 14.0282 15.0271H14.753C14.8956 15.0271 15.0324 14.9704 15.1333 14.8695C15.2342 14.7687 15.2908 14.6319 15.2908 14.4892C15.2908 14.3466 15.2342 14.2098 15.1333 14.1089C15.0324 14.008 14.8956 13.9514 14.753 13.9514H14.0282C11.4292 13.9514 11.0515 16.1566 10.9306 17.3313C10.4688 16.9738 9.85606 16.273 9.62066 14.959C9.56874 14.6755 9.41878 14.4191 9.197 14.2349C8.97522 14.0507 8.69575 13.9504 8.40745 13.9514H7.49571C7.13812 13.9514 6.79517 13.8093 6.54232 13.5565C6.28946 13.3036 6.14741 12.9607 6.14741 12.6031V2.85377C6.14741 2.4924 6.29096 2.14583 6.54649 1.89031C6.80202 1.63478 7.14859 1.49122 7.50996 1.49122H38.5043C38.8619 1.49122 39.2048 1.63328 39.4577 1.88613C39.7105 2.13899 39.8526 2.48193 39.8526 2.83952V12.5696C39.8515 12.9357 39.7056 13.2865 39.4467 13.5455C39.1878 13.8044 38.8369 13.9503 38.4708 13.9514H37.5936C37.3053 13.9492 37.0255 14.0488 36.8034 14.2325C36.5812 14.4163 36.431 14.6724 36.379 14.956C36.1441 16.2673 35.5316 16.9777 35.0694 17.3355C34.9483 16.1607 34.5703 13.9514 31.9718 13.9514H18.5179C18.3753 13.9514 18.2385 14.008 18.1376 14.1089C18.0367 14.2098 17.9801 14.3466 17.9801 14.4892C17.9801 14.6319 18.0367 14.7687 18.1376 14.8695C18.2385 14.9704 18.3753 15.0271 18.5179 15.0271H31.2402C30.5628 15.6392 30.0148 16.3807 29.6286 17.208C29.2194 18.049 29.0065 18.972 29.006 19.9073V21.6321C29.0091 21.754 28.9851 21.875 28.9358 21.9865C28.9349 21.9885 28.9387 21.9903 28.9378 21.9923C28.9015 22.0695 28.8704 22.1478 28.8387 22.2267C28.6106 22.2428 28.4229 22.2577 28.2675 22.2784C28.1261 22.2974 27.9979 22.3717 27.9112 22.4851C27.8246 22.5985 27.7865 22.7417 27.8055 22.8831C27.8244 23.0246 27.8987 23.1527 28.0121 23.2394C28.1255 23.326 28.2687 23.3641 28.4101 23.3452C28.453 23.3395 28.5022 23.3342 28.5559 23.329C28.4858 23.8963 28.5277 24.4719 28.6793 25.0232L28.7609 25.319C28.8193 25.5338 28.8303 25.7588 28.7931 25.9783C28.756 26.1979 28.6716 26.4067 28.5458 26.5904C28.1025 27.2439 27.9452 27.8715 28.0789 28.456C28.1896 28.9176 28.4707 29.3204 28.8657 29.5838C29.8701 30.4077 29.647 30.9991 29.6116 31.0767C29.5896 31.1088 29.5735 31.1446 29.5641 31.1824C29.5013 31.3736 29.099 32.6183 29.2894 33.7931C28.744 34.0945 28.289 34.536 27.9713 35.0721C27.6536 35.6081 27.4847 36.2193 27.4821 36.8424V43.2641C27.489 43.4099 27.5521 43.5473 27.6582 43.6476C27.7642 43.7479 27.905 43.8032 28.0509 43.802H44.9622C45.1048 43.802 45.2416 43.7453 45.3425 43.6444C45.4433 43.5436 45.5 43.4068 45.5 43.2641V36.8424C45.5008 36.246 45.3486 35.6594 45.0579 35.1386C44.7673 34.6178 44.348 34.1803 43.84 33.8678ZM3.90637 24.8831C3.8491 24.8857 3.79208 24.8741 3.74036 24.8494C3.6633 24.8193 3.59599 24.7686 3.54575 24.7029C3.49551 24.6372 3.46427 24.5589 3.45544 24.4767C3.44661 24.3944 3.46052 24.3113 3.49567 24.2364C3.53081 24.1616 3.58584 24.0978 3.65475 24.052C3.69154 24.028 3.73317 24.0125 3.77667 24.0064C3.82017 24.0004 3.86446 24.0041 3.90637 24.0172V24.8831ZM15.1116 24.0149C15.1495 24.0034 15.1895 24.0008 15.2285 24.0072C15.2676 24.0137 15.3047 24.029 15.3369 24.052C15.3876 24.0885 15.4301 24.1354 15.4615 24.1894C15.4929 24.2435 15.5125 24.3036 15.5191 24.3657C15.534 24.4646 15.5159 24.5657 15.4676 24.6533C15.4192 24.7408 15.3432 24.8099 15.2515 24.8498C15.2056 24.864 15.1589 24.8752 15.1116 24.8832V24.0149ZM4.1753 22.2701V18.0673C4.17498 17.6821 4.29608 17.3067 4.52138 16.9943C4.74668 16.682 5.06472 16.4486 5.43028 16.3273V20.5302C5.43062 20.9153 5.30953 21.2908 5.08423 21.6031C4.85892 21.9155 4.54087 22.1489 4.1753 22.2701ZM5.70351 33.4428L5.91049 33.109C6.18785 33.7603 6.67875 34.2978 7.30235 34.6329C7.30513 34.6345 7.30791 34.636 7.31078 34.6374L8.67512 35.3439L7.93719 36.3378L6.60673 35.4668C6.27706 35.2525 6.01639 34.9474 5.85614 34.5883C5.69589 34.2292 5.64288 33.8314 5.70351 33.4428ZM11.5063 33.4518C11.4029 33.5403 11.2909 33.6181 11.1719 33.6841L9.49104 34.5558L7.80864 33.6841C7.68238 33.6183 7.5627 33.5406 7.45124 33.4521C7.60227 33.1698 7.67806 32.8533 7.67131 32.5332V31.1287C8.25034 31.3179 8.85502 31.4169 9.46414 31.4222C10.0739 31.4242 10.6797 31.325 11.257 31.1287V32.5332C11.2603 32.8557 11.3462 33.1719 11.5063 33.4518ZM14.3099 34.3896H14.9928C15.6407 34.3969 16.26 34.6578 16.7179 35.1163C17.1758 35.5748 17.4358 36.1944 17.4422 36.8424V42.7263H15.1116V39.2054C15.1116 39.0628 15.0549 38.926 14.954 38.8251C14.8532 38.7242 14.7164 38.6676 14.5737 38.6676C14.4311 38.6676 14.2943 38.7242 14.1934 38.8251C14.0925 38.926 14.0359 39.0628 14.0359 39.2054V42.7263H4.98207V39.2054C4.98207 39.0628 4.92541 38.926 4.82454 38.8251C4.72367 38.7242 4.58687 38.6676 4.44422 38.6676C4.30158 38.6676 4.16477 38.7242 4.06391 38.8251C3.96304 38.926 3.90637 39.0628 3.90637 39.2054V42.7263H1.5757V36.8424C1.5757 35.5089 2.66036 34.3896 3.99413 34.3896H4.67729C4.76004 34.7887 4.92112 35.1674 5.15122 35.5038C5.38132 35.8402 5.67586 36.1276 6.01779 36.3494L7.77234 37.5065C7.88582 37.5838 8.02478 37.6141 8.16012 37.5912C8.29546 37.5683 8.41669 37.4939 8.49844 37.3836L9.49346 36.0447L10.4885 37.3853C10.5702 37.4954 10.6908 37.5701 10.8258 37.5942C10.9607 37.6184 11.0998 37.59 11.2146 37.5151L12.9692 36.3497C13.3112 36.1279 13.6058 35.8405 13.8359 35.504C14.0661 35.1675 14.2272 34.7888 14.3099 34.3896ZM13.0767 33.109L13.2837 33.4428C13.3443 33.8313 13.2912 34.229 13.131 34.5881C12.9707 34.9471 12.7101 35.2522 12.3804 35.4665L11.05 36.3374L10.3121 35.3435L11.6765 34.637L11.6849 34.6326C12.3084 34.2975 12.7993 33.7602 13.0767 33.109ZM14.0359 25.8251C14.0359 27.0257 13.5589 28.1771 12.71 29.0261C11.861 29.8751 10.7096 30.352 9.50896 30.352C8.30836 30.352 7.15692 29.8751 6.30797 29.0261C5.45901 28.1771 4.98207 27.0257 4.98207 25.8251V23.0858C5.44181 22.8355 5.82581 22.4662 6.0939 22.0166C6.36199 21.567 6.50431 21.0536 6.50598 20.5302V20.2481C6.95303 20.5732 7.48906 20.7533 8.04171 20.7641H11.2211C12.5946 20.7641 13.7669 21.803 14.0359 23.1576V25.8251ZM8.09137 15.7621C8.27201 15.6786 8.45815 15.6076 8.6485 15.5495C9.20149 17.7905 10.7235 18.5072 11.0942 18.6517C11.1962 18.7045 11.3123 18.7236 11.4259 18.7065C11.538 18.6885 11.6423 18.6374 11.7253 18.5599C11.8083 18.4824 11.8663 18.3819 11.892 18.2712C11.9382 18.0714 11.9674 17.8681 11.9794 17.6634C12.0344 17.0742 12.1122 16.5126 12.3086 16.0601C12.4836 16.1722 12.6502 16.2969 12.8071 16.4331C13.2768 16.8426 13.6535 17.3479 13.9118 17.9151C14.1702 18.4822 14.3041 19.098 14.3048 19.7212V21.2052C14.2104 21.0861 14.1081 20.9734 13.9987 20.8679C13.6396 20.4936 13.2083 20.1961 12.7309 19.9934C12.2534 19.7906 11.7398 19.6869 11.2211 19.6884H8.04171C7.29554 19.6884 6.68526 19.1393 6.50598 18.4144V16.4976L8.09137 15.7621ZM44.121 27.8395C44.0761 28.0349 43.9598 28.2065 43.7949 28.3205C43.7705 28.3336 43.7476 28.3494 43.7266 28.3676C42.1052 29.6785 42.521 30.8812 42.6707 31.1946C42.8607 31.8002 43.1746 33.3965 42.5153 34.0874C42.2667 34.3481 41.8979 34.4959 41.6389 34.4392C41.6292 34.4371 41.6167 34.4344 41.6019 34.4302C41.7731 34.2507 41.8727 34.0148 41.8821 33.7669C41.8898 33.5617 41.8498 33.3576 41.7651 33.1706C41.6803 32.9836 41.5533 32.8189 41.3939 32.6895C40.7719 32.1758 40.2577 30.9608 39.9507 30.2348L39.9499 30.2332C40.6024 29.7244 41.1338 29.0771 41.5057 28.3379C41.8776 27.5988 42.0808 26.7863 42.1005 25.9591C42.2903 25.9564 42.478 25.9188 42.6542 25.8481C42.8659 25.7626 43.0553 25.63 43.208 25.4604C43.3042 25.9399 43.4996 26.3939 43.7817 26.7932C43.9761 27.0717 44.1941 27.4795 44.121 27.8392V27.8395ZM36.491 30.3468C35.2917 30.3456 34.1417 29.869 33.2932 29.0215C32.4446 28.1739 31.9667 27.0245 31.9641 25.8251V22.9279C32.4187 22.8363 32.8676 22.7189 33.3088 22.5762C33.1384 22.7079 33.0007 22.8769 32.9061 23.0704C32.8116 23.2638 32.7629 23.4764 32.7637 23.6916C32.7637 23.8348 32.8205 23.9721 32.9218 24.0734C33.023 24.1746 33.1603 24.2315 33.3035 24.2315C33.4466 24.2315 33.584 24.1746 33.6852 24.0734C33.7864 23.9721 33.8433 23.8348 33.8433 23.6916C33.8433 23.6027 33.8786 23.5174 33.9415 23.4545C34.0044 23.3916 34.0897 23.3563 34.1786 23.3563C34.2676 23.3563 34.3529 23.3916 34.4158 23.4545C34.4787 23.5174 34.514 23.6027 34.514 23.6916C34.514 23.8343 34.5707 23.9711 34.6715 24.072C34.7724 24.1728 34.9092 24.2295 35.0518 24.2295C35.1945 24.2295 35.3313 24.1728 35.4322 24.072C35.533 23.9711 35.5897 23.8343 35.5897 23.6916C35.5893 23.3177 35.4406 22.9591 35.1761 22.6947C34.9117 22.4302 34.5532 22.2815 34.1792 22.281C34.1591 22.281 34.1396 22.2832 34.1197 22.2841C34.1351 22.2778 34.1504 22.2721 34.1657 22.2657C36.3228 21.3729 37.8944 19.8886 38.8467 17.8477C38.981 18.0236 39.0803 18.2235 39.1392 18.4368C39.2242 18.751 39.4103 19.0285 39.6687 19.2265C39.9272 19.4245 40.2436 19.5319 40.5691 19.5322C40.6284 19.5324 40.6871 19.5442 40.7418 19.5672C40.7966 19.5901 40.8462 19.6236 40.8879 19.6658C40.9296 19.708 40.9626 19.758 40.9849 19.813C41.0072 19.868 41.0184 19.9268 41.0179 19.9861V25.8251C41.0154 27.0245 40.5375 28.1739 39.6889 29.0215C38.8404 29.869 37.6904 30.3456 36.491 30.3468ZM38.3287 31.129V34.4476C38.3287 34.9231 38.1398 35.3791 37.8036 35.7153C37.4674 36.0516 37.0113 36.2405 36.5359 36.2405C36.0604 36.2405 35.6044 36.0516 35.2681 35.7153C34.9319 35.3791 34.743 34.9231 34.743 34.4476V31.1287C35.3203 31.325 35.9261 31.4242 36.5359 31.4222C37.145 31.4169 37.7497 31.3179 38.3287 31.1287V31.129ZM39.4044 31.5765C39.6733 32.2094 40.0468 32.866 40.5226 33.3142H40.1819C40.0787 33.3172 39.976 33.299 39.8801 33.2608C39.7842 33.2226 39.6971 33.1651 39.6242 33.0919C39.5514 33.0187 39.4943 32.9314 39.4565 32.8353C39.4187 32.7393 39.4009 32.6364 39.4044 32.5332V31.5765ZM42.0936 24.8831V24.0152C42.1341 24.0037 42.1766 24.0011 42.2181 24.0075C42.2597 24.0139 42.2994 24.0291 42.3346 24.0522C42.4029 24.0984 42.4574 24.1625 42.4921 24.2373C42.5268 24.3122 42.5404 24.3952 42.5315 24.4772C42.5225 24.5593 42.4914 24.6373 42.4414 24.703C42.3914 24.7687 42.3245 24.8195 42.2478 24.85C42.2 24.8738 42.147 24.8851 42.0936 24.8828V24.8831ZM30.0817 21.6321V19.9073C30.083 19.1337 30.2598 18.3705 30.599 17.6753C31.1595 16.5117 31.9502 15.6617 32.8877 15.2004C33.7427 15.5882 33.9195 16.5793 34.0207 17.6628C34.0327 17.8691 34.0621 18.0741 34.1084 18.2755C34.1339 18.3857 34.1919 18.4857 34.2749 18.5625C34.3579 18.6394 34.462 18.6895 34.5739 18.7065C34.5997 18.7099 34.6257 18.7114 34.6517 18.711H34.654C33.0108 20.5174 31.0174 20.1866 30.9256 20.17C30.7854 20.1435 30.6404 20.1737 30.5226 20.2541C30.4047 20.3345 30.3236 20.4584 30.2971 20.5985C30.2706 20.7387 30.3009 20.8836 30.3812 21.0015C30.4616 21.1193 30.5855 21.2004 30.7257 21.2269C30.9473 21.2637 31.1717 21.2808 31.3964 21.2781C32.3238 21.2781 34.0442 21.0224 35.5042 19.3757C35.5657 19.3063 35.6082 19.2222 35.6276 19.1315C35.647 19.0408 35.6426 18.9466 35.6149 18.8581C35.5872 18.7697 35.5371 18.6898 35.4694 18.6264C35.4017 18.563 35.3188 18.5182 35.2287 18.4963C35.7835 18.197 36.7663 17.4669 37.2572 15.8891C37.2673 15.8816 37.2775 15.8744 37.2873 15.8661C37.6062 15.5923 37.9698 15.3755 38.3622 15.225C40.6266 14.3725 41.6385 15.4368 42.0884 16.48C42.2895 16.9457 42.452 17.3016 42.6158 17.634C42.8822 18.1738 43.0509 18.7565 43.1143 19.3551C43.1726 19.8944 43.2968 20.4246 43.4841 20.9336L43.4886 20.9458C43.7226 21.5852 43.7188 22.2875 43.478 22.9243C43.4071 23.1123 43.3472 23.3042 43.2987 23.4991C43.1991 23.3708 43.0801 23.2589 42.9459 23.1674C42.6946 22.9991 42.3958 22.9162 42.0936 22.9309V19.9861C42.094 19.7856 42.0548 19.5869 41.9783 19.4015C41.9019 19.2161 41.7897 19.0476 41.6481 18.9056C41.5065 18.7635 41.3384 18.6507 41.1532 18.5737C40.9681 18.4966 40.7695 18.4568 40.569 18.4565C40.4793 18.4567 40.392 18.4273 40.3206 18.3728C40.2493 18.3183 40.198 18.2418 40.1746 18.1552C39.9735 17.4589 39.5245 16.8602 38.9123 16.4723C38.8447 16.4333 38.7694 16.4094 38.6917 16.4025C38.6139 16.3955 38.5356 16.4056 38.4621 16.432C38.3887 16.4584 38.3219 16.5005 38.2663 16.5554C38.2108 16.6103 38.1679 16.6766 38.1406 16.7497C36.5332 21.049 32.488 21.8877 30.0232 22.1326C30.0649 21.9691 30.0845 21.8008 30.0817 21.6321ZM30.8884 24.0171V24.8831C30.8373 24.8764 30.7869 24.8652 30.7378 24.8494C30.6456 24.8098 30.5689 24.741 30.5196 24.6535C30.4704 24.5661 30.4512 24.4648 30.4651 24.3654C30.4721 24.3031 30.4922 24.2429 30.5241 24.1889C30.5559 24.1348 30.5987 24.0881 30.6498 24.0516C30.6842 24.0278 30.7237 24.0123 30.7651 24.0063C30.8065 24.0003 30.8487 24.004 30.8884 24.0171ZM29.6571 23.2462C29.7625 23.2378 29.8723 23.2283 29.9849 23.2182C29.8331 23.3347 29.7047 23.4789 29.6065 23.6431C29.6153 23.51 29.6322 23.3774 29.6571 23.2463V23.2462ZM29.518 28.7278C29.4994 28.711 29.4788 28.6966 29.4567 28.6849C29.2899 28.5722 29.1716 28.4009 29.125 28.2051C29.0659 27.9254 29.1706 27.5853 29.436 27.194C29.7643 26.7116 29.9221 26.1333 29.8845 25.551C30.0194 25.6778 30.1767 25.7784 30.3484 25.8477C30.5279 25.9197 30.7193 25.9575 30.9126 25.9591C30.9352 26.8801 31.1847 27.7813 31.639 28.5827C32.0934 29.3842 32.7385 30.0611 33.5173 30.5533C33.0973 31.4791 32.4836 32.5268 31.8506 33.0495C31.6912 33.179 31.5642 33.3437 31.4795 33.5308C31.3947 33.7178 31.3547 33.922 31.3625 34.1272C31.3719 34.3749 31.4715 34.6106 31.6426 34.79C31.6278 34.7943 31.6152 34.797 31.6056 34.7989C31.3463 34.8557 30.9781 34.7079 30.7292 34.4472C30.0697 33.756 30.3841 32.1589 30.5738 31.5544C30.7235 31.2417 31.1394 30.0389 29.518 28.7279V28.7278ZM33.644 32.5705C33.6366 32.7306 33.582 32.885 33.4873 33.0143C33.3926 33.1436 33.2619 33.2421 33.1115 33.2974C33.3034 33.0661 33.4813 32.8234 33.644 32.5706V32.5705ZM28.5578 42.7263V41.6506H30.6057C30.5994 42.0122 30.6361 42.3733 30.7149 42.7263H28.5578ZM44.4243 42.7263H42.2981C42.3769 42.3733 42.4136 42.0122 42.4074 41.6506H44.4243V42.7263ZM44.4243 40.5749H42.2543C42.1985 40.3841 42.1315 40.1969 42.0537 40.014C42.0254 39.9495 41.9845 39.8913 41.9336 39.8427C41.8826 39.794 41.8226 39.7559 41.7569 39.7306C41.6911 39.7052 41.6211 39.6931 41.5506 39.695C41.4802 39.6968 41.4109 39.7125 41.3465 39.7412C41.2155 39.7987 41.1124 39.9057 41.0599 40.0388C41.0074 40.172 41.0098 40.3205 41.0664 40.452C41.3756 41.1717 41.4181 41.9781 41.1863 42.7263H31.8268C31.5949 41.9793 31.6374 41.1741 31.9467 40.4557C31.9747 40.3908 31.9897 40.3211 31.9908 40.2505C31.9919 40.1799 31.9791 40.1097 31.9531 40.0441C31.927 39.9784 31.8884 39.9185 31.8392 39.8678C31.79 39.8171 31.7314 39.7765 31.6665 39.7485C31.6027 39.7191 31.5337 39.7027 31.4635 39.7002C31.3933 39.6977 31.3233 39.7091 31.2576 39.7338C31.1918 39.7585 31.1316 39.7959 31.0804 39.844C31.0292 39.8921 30.9881 39.9499 30.9593 40.014C30.8815 40.1968 30.8145 40.3841 30.7587 40.5749H28.5578V36.8424C28.5605 36.4419 28.6622 36.0482 28.854 35.6965C29.0457 35.3449 29.3215 35.0461 29.6567 34.8268C29.7395 34.9576 29.8356 35.0794 29.9435 35.1904C30.1416 35.4028 30.3799 35.5738 30.6446 35.6934C30.9092 35.813 31.195 35.8788 31.4854 35.887C31.6026 35.8873 31.7195 35.875 31.8341 35.8502C32.3848 35.7295 32.8033 35.3303 33.0105 34.7259C33.0491 34.6267 33.0575 34.5183 33.0348 34.4143C33.2543 34.3936 33.4685 34.3342 33.6673 34.2389V34.4474C33.6673 35.2081 33.9695 35.9378 34.5075 36.4757C35.0455 37.0137 35.7751 37.3159 36.5359 37.3159C37.2966 37.3159 38.0263 37.0137 38.5642 36.4757C39.1022 35.9378 39.4044 35.2081 39.4044 34.4474V34.2389C39.5837 34.3563 39.8918 34.3896 40.1821 34.3896H40.2548C40.4685 35.0171 40.8758 35.3557 41.4085 35.4724C41.5221 35.5 41.6384 35.5152 41.7553 35.5178C42.0449 35.5104 42.33 35.4453 42.5942 35.3265C42.8583 35.2076 43.096 35.0372 43.2936 34.8254C43.3003 34.8184 43.306 34.813 43.3127 34.8059C43.6539 35.0249 43.9346 35.3262 44.1288 35.682C44.3231 36.0379 44.4247 36.437 44.4243 36.8424V40.5749Z" fill="#501464"/>
<path d="M39.3822 16.3315C39.392 16.334 40.3629 16.5946 40.5801 17.5386C40.596 17.6075 40.6252 17.6726 40.6662 17.7301C40.7072 17.7877 40.7591 17.8366 40.819 17.8741C40.8789 17.9116 40.9455 17.937 41.0152 17.9487C41.0849 17.9604 41.1562 17.9583 41.2251 17.9425C41.294 17.9266 41.359 17.8974 41.4166 17.8564C41.4742 17.8154 41.5231 17.7635 41.5606 17.7036C41.5981 17.6437 41.6234 17.577 41.6351 17.5074C41.6469 17.4377 41.6448 17.3664 41.6289 17.2975C41.2667 15.7234 39.7169 15.3068 39.6512 15.2895C39.513 15.2539 39.3664 15.2745 39.2435 15.347C39.1206 15.4195 39.0315 15.5378 38.9959 15.6759C38.9602 15.814 38.9809 15.9607 39.0533 16.0836C39.1258 16.2064 39.2441 16.2955 39.3822 16.3312V16.3315Z" fill="#501464"/>
<path d="M30.7671 30.9986C30.7424 31.0655 30.7313 31.1367 30.7344 31.2079C30.7375 31.2791 30.7547 31.349 30.7851 31.4135C30.8154 31.478 30.8583 31.5359 30.9112 31.5837C30.9641 31.6315 31.0259 31.6683 31.0932 31.6919C31.1604 31.7156 31.2317 31.7257 31.3029 31.7216C31.374 31.7174 31.4437 31.6992 31.5077 31.6679C31.5718 31.6366 31.629 31.5929 31.676 31.5393C31.723 31.4858 31.7589 31.4234 31.7816 31.3558C32.6732 28.8231 30.4311 27.969 30.4084 27.9607C30.3421 27.9355 30.2714 27.9238 30.2005 27.9261C30.1296 27.9283 30.0599 27.9446 29.9953 27.974C29.9307 28.0033 29.8725 28.0452 29.8242 28.0971C29.7758 28.149 29.7382 28.21 29.7136 28.2765C29.6889 28.343 29.6776 28.4137 29.6804 28.4846C29.6831 28.5555 29.6999 28.6252 29.7297 28.6896C29.7595 28.7539 29.8018 28.8118 29.854 28.8598C29.9063 28.9078 29.9675 28.9449 30.0342 28.9692C30.2469 29.0514 31.2821 29.5357 30.7671 30.9986Z" fill="#501464"/>
<path d="M11.8209 22.281C11.4469 22.2814 11.0884 22.4302 10.8239 22.6946C10.5595 22.9591 10.4107 23.3176 10.4103 23.6916C10.4103 23.8342 10.467 23.9711 10.5678 24.0719C10.6687 24.1728 10.8055 24.2295 10.9482 24.2295C11.0908 24.2295 11.2276 24.1728 11.3285 24.0719C11.4293 23.9711 11.486 23.8342 11.486 23.6916C11.4853 23.6472 11.4934 23.603 11.5099 23.5618C11.5264 23.5205 11.551 23.4829 11.5821 23.4513C11.6133 23.4196 11.6504 23.3944 11.6914 23.3772C11.7324 23.3601 11.7764 23.3512 11.8209 23.3512C11.8653 23.3512 11.9093 23.3601 11.9503 23.3772C11.9913 23.3944 12.0284 23.4196 12.0596 23.4513C12.0908 23.4829 12.1153 23.5205 12.1318 23.5618C12.1483 23.603 12.1564 23.6472 12.1557 23.6916C12.1557 23.8342 12.2124 23.9711 12.3132 24.0719C12.4141 24.1728 12.5509 24.2295 12.6936 24.2295C12.8362 24.2295 12.973 24.1728 13.0739 24.0719C13.1747 23.9711 13.2314 23.8342 13.2314 23.6916C13.231 23.3176 13.0823 22.9591 12.8178 22.6946C12.5534 22.4302 12.1949 22.2814 11.8209 22.281Z" fill="#501464"/>
<path d="M8.03885 24.2295C8.1815 24.2295 8.3183 24.1729 8.41917 24.072C8.52004 23.9711 8.5767 23.8343 8.5767 23.6917C8.57373 23.3195 8.42381 22.9636 8.15958 22.7014C7.89536 22.4393 7.53825 22.2922 7.16606 22.2922C6.79387 22.2922 6.43676 22.4393 6.17254 22.7014C5.90831 22.9636 5.75838 23.3195 5.75542 23.6917C5.75542 23.8343 5.81208 23.9711 5.91295 24.072C6.01382 24.1729 6.15062 24.2295 6.29327 24.2295C6.43591 24.2295 6.57272 24.1729 6.67358 24.072C6.77445 23.9711 6.83111 23.8343 6.83111 23.6917C6.83255 23.6038 6.86847 23.52 6.93113 23.4584C6.99379 23.3967 7.07816 23.3622 7.16606 23.3622C7.25396 23.3622 7.33833 23.3967 7.40099 23.4584C7.46365 23.52 7.49957 23.6038 7.501 23.6917C7.501 23.8343 7.55767 23.9711 7.65854 24.072C7.7594 24.1729 7.89621 24.2295 8.03885 24.2295Z" fill="#501464"/>
<path d="M10.5682 26.5808C10.2829 26.8654 9.8964 27.0252 9.49344 27.0252C9.09049 27.0252 8.70398 26.8654 8.41873 26.5808C8.36893 26.5302 8.30961 26.4899 8.24417 26.4623C8.17874 26.4348 8.1085 26.4205 8.0375 26.4202C7.9665 26.4199 7.89615 26.4337 7.8305 26.4607C7.76486 26.4878 7.70521 26.5275 7.65502 26.5777C7.60482 26.628 7.56506 26.6876 7.53803 26.7533C7.511 26.8189 7.49724 26.8893 7.49753 26.9603C7.49783 27.0313 7.51218 27.1015 7.53976 27.1669C7.56734 27.2324 7.6076 27.2917 7.65821 27.3415C8.14537 27.8274 8.80538 28.1004 9.49349 28.1004C10.1816 28.1004 10.8416 27.8274 11.3288 27.3415C11.3787 27.2915 11.4183 27.2322 11.4454 27.167C11.4724 27.1017 11.4863 27.0318 11.4863 26.9611C11.4863 26.8905 11.4724 26.8206 11.4454 26.7553C11.4184 26.6901 11.3787 26.6308 11.3288 26.5808C11.2789 26.5309 11.2196 26.4912 11.1543 26.4642C11.0891 26.4372 11.0191 26.4233 10.9485 26.4232C10.8779 26.4232 10.8079 26.4372 10.7427 26.4642C10.6774 26.4912 10.6181 26.5308 10.5682 26.5808Z" fill="#501464"/>
<path d="M25.3553 11.0828C25.3553 11.2254 25.412 11.3622 25.5129 11.4631C25.6137 11.564 25.7505 11.6206 25.8932 11.6206H36.3566C36.4992 11.6206 36.636 11.564 36.7369 11.4631C36.8378 11.3622 36.8944 11.2254 36.8944 11.0828C36.8944 10.9401 36.8378 10.8033 36.7369 10.7025C36.636 10.6016 36.4992 10.5449 36.3566 10.5449H25.8932C25.7505 10.5449 25.6137 10.6016 25.5129 10.7025C25.412 10.8033 25.3553 10.9401 25.3553 11.0828Z" fill="#501464"/>
<path d="M14.9071 11.6206H23.7224C23.8651 11.6206 24.0019 11.564 24.1027 11.4631C24.2036 11.3622 24.2603 11.2254 24.2603 11.0828C24.2603 10.9401 24.2036 10.8033 24.1027 10.7025C24.0019 10.6016 23.8651 10.5449 23.7224 10.5449H14.9071C14.7644 10.5449 14.6276 10.6016 14.5268 10.7025C14.4259 10.8033 14.3692 10.9401 14.3692 11.0828C14.3692 11.2254 14.4259 11.3622 14.5268 11.4631C14.6276 11.564 14.7644 11.6206 14.9071 11.6206Z" fill="#501464"/>
<path d="M9.64342 10.5449C9.50078 10.5449 9.36397 10.6016 9.26311 10.7025C9.16224 10.8033 9.10558 10.9401 9.10558 11.0828C9.10558 11.2254 9.16224 11.3622 9.26311 11.4631C9.36397 11.564 9.50078 11.6206 9.64342 11.6206H12.8039C12.9466 11.6206 13.0834 11.564 13.1842 11.4631C13.2851 11.3622 13.3418 11.2254 13.3418 11.0828C13.3418 10.9401 13.2851 10.8033 13.1842 10.7025C13.0834 10.6016 12.9466 10.5449 12.8039 10.5449H9.64342Z" fill="#501464"/>
<path d="M33.4199 7.49708C33.4199 7.63972 33.4766 7.77653 33.5775 7.87739C33.6783 7.97826 33.8151 8.03493 33.9578 8.03493H36.3566C36.4992 8.03493 36.636 7.97826 36.7369 7.87739C36.8378 7.77653 36.8944 7.63972 36.8944 7.49708C36.8944 7.35443 36.8378 7.21763 36.7369 7.11676C36.636 7.01589 36.4992 6.95923 36.3566 6.95923H33.9578C33.8151 6.95923 33.6783 7.01589 33.5775 7.11676C33.4766 7.21763 33.4199 7.35443 33.4199 7.49708Z" fill="#501464"/>
<path d="M31.8745 8.03493C32.0172 8.03493 32.154 7.97826 32.2548 7.87739C32.3557 7.77653 32.4124 7.63972 32.4124 7.49708C32.4124 7.35443 32.3557 7.21763 32.2548 7.11676C32.154 7.01589 32.0172 6.95923 31.8745 6.95923H26.5825C26.4399 6.95923 26.3031 7.01589 26.2022 7.11676C26.1013 7.21763 26.0447 7.35443 26.0447 7.49708C26.0447 7.63972 26.1013 7.77653 26.2022 7.87739C26.3031 7.97826 26.4399 8.03493 26.5825 8.03493H31.8745Z" fill="#501464"/>
<path d="M25.0098 7.49708C25.0098 7.35443 24.9532 7.21763 24.8523 7.11676C24.7514 7.01589 24.6146 6.95923 24.472 6.95923H9.64342C9.50078 6.95923 9.36397 7.01589 9.26311 7.11676C9.16224 7.21763 9.10558 7.35443 9.10558 7.49708C9.10558 7.63972 9.16224 7.77653 9.26311 7.87739C9.36397 7.97826 9.50078 8.03493 9.64342 8.03493H24.472C24.6146 8.03493 24.7514 7.97826 24.8523 7.87739C24.9532 7.77653 25.0098 7.63972 25.0098 7.49708Z" fill="#501464"/>
<path d="M34.417 4.27028H36.3566C36.4992 4.27028 36.636 4.21361 36.7369 4.11275C36.8378 4.01188 36.8944 3.87507 36.8944 3.73243C36.8944 3.58978 36.8378 3.45298 36.7369 3.35211C36.636 3.25125 36.4992 3.19458 36.3566 3.19458H34.417C34.2744 3.19458 34.1375 3.25125 34.0367 3.35211C33.9358 3.45298 33.8792 3.58978 33.8792 3.73243C33.8792 3.87507 33.9358 4.01188 34.0367 4.11275C34.1375 4.21361 34.2744 4.27028 34.417 4.27028Z" fill="#501464"/>
<path d="M32.2881 3.19458H13.9536C13.8109 3.19458 13.6741 3.25125 13.5732 3.35211C13.4724 3.45298 13.4157 3.58978 13.4157 3.73243C13.4157 3.87507 13.4724 4.01188 13.5732 4.11275C13.6741 4.21361 13.8109 4.27028 13.9536 4.27028H32.2881C32.4307 4.27028 32.5675 4.21361 32.6684 4.11275C32.7693 4.01188 32.8259 3.87507 32.8259 3.73243C32.8259 3.58978 32.7693 3.45298 32.6684 3.35211C32.5675 3.25125 32.4307 3.19458 32.2881 3.19458Z" fill="#501464"/>
<path d="M9.64342 4.27028H11.843C11.9857 4.27028 12.1225 4.21361 12.2234 4.11275C12.3242 4.01188 12.3809 3.87507 12.3809 3.73243C12.3809 3.58978 12.3242 3.45298 12.2234 3.35211C12.1225 3.25125 11.9857 3.19458 11.843 3.19458H9.64342C9.50078 3.19458 9.36397 3.25125 9.26311 3.35211C9.16224 3.45298 9.10558 3.58978 9.10558 3.73243C9.10558 3.87507 9.16224 4.01188 9.26311 4.11275C9.36397 4.21361 9.50078 4.27028 9.64342 4.27028Z" fill="#501464"/>
<path d="M8.20915 3.55299C8.20915 3.41034 8.15248 3.27354 8.05162 3.17267C7.95075 3.0718 7.81395 3.01514 7.6713 3.01514C7.52866 3.01514 7.39185 3.0718 7.29099 3.17267C7.19012 3.27354 7.13345 3.41034 7.13345 3.55299V3.73227C7.13345 3.87491 7.19012 4.01172 7.29099 4.11258C7.39185 4.21345 7.52866 4.27012 7.6713 4.27012C7.81395 4.27012 7.95075 4.21345 8.05162 4.11258C8.15248 4.01172 8.20915 3.87491 8.20915 3.73227V3.55299Z" fill="#501464"/>
<path d="M7.67129 4.9873C7.52864 4.9873 7.39184 5.04397 7.29097 5.14484C7.1901 5.2457 7.13344 5.38251 7.13344 5.52515V11.0829C7.13344 11.2256 7.1901 11.3624 7.29097 11.4632C7.39184 11.5641 7.52864 11.6208 7.67129 11.6208C7.81393 11.6208 7.95074 11.5641 8.0516 11.4632C8.15247 11.3624 8.20914 11.2256 8.20914 11.0829V5.52515C8.20914 5.38251 8.15247 5.2457 8.0516 5.14484C7.95074 5.04397 7.81393 4.9873 7.67129 4.9873Z" fill="#501464"/>
</svg>
