<svg width="40" height="45" viewBox="0 0 40 45" fill="none" xmlns="http://www.w3.org/2000/svg">
<path d="M18.9444 23.7052C18.2382 23.1962 17.3763 22.9504 16.5079 23.0104C16.6305 22.4633 16.6284 21.8956 16.5019 21.3494C16.3754 20.8033 16.1276 20.2925 15.7769 19.8551C15.6889 19.7451 15.5608 19.6746 15.4209 19.6591C15.2809 19.6436 15.1405 19.6843 15.0305 19.7723C14.9206 19.8604 14.8501 19.9884 14.8345 20.1284C14.819 20.2684 14.8598 20.4088 14.9478 20.5188C15.257 20.9045 15.4534 21.3684 15.5153 21.8589C15.5771 22.3495 15.5019 22.8475 15.298 23.298C14.5445 23.6165 13.9161 24.1731 13.5091 24.8828C13.1021 25.5924 12.9389 26.4158 13.0445 27.2271C13.0611 27.3549 13.1236 27.4723 13.2203 27.5574C13.3171 27.6425 13.4415 27.6895 13.5704 27.6897C13.5935 27.6897 13.6165 27.6882 13.6394 27.6852C13.7086 27.6762 13.7752 27.6537 13.8357 27.6189C13.8961 27.5842 13.9491 27.5378 13.9917 27.4826C14.0342 27.4273 14.0655 27.3643 14.0836 27.2969C14.1018 27.2296 14.1065 27.1594 14.0975 27.0902C14.0302 26.5715 14.116 26.0444 14.3443 25.5738C14.5727 25.1032 14.9336 24.7096 15.3828 24.4415C15.832 24.1734 16.3497 24.0425 16.8723 24.0648C17.3949 24.0872 17.8996 24.2618 18.3242 24.5673C18.4385 24.6491 18.5807 24.6823 18.7194 24.6595C18.8581 24.6367 18.9821 24.5598 19.0642 24.4456C19.1463 24.3315 19.1798 24.1895 19.1574 24.0507C19.1349 23.9119 19.0583 23.7877 18.9444 23.7053V23.7052Z" fill="#501464"/>
<path d="M7.85252 18.2082C8.08559 17.8552 8.24236 17.4575 8.31279 17.0404C8.38322 16.6234 8.36577 16.1962 8.26154 15.7862C8.24462 15.7183 8.21441 15.6543 8.17266 15.5981C8.13091 15.5418 8.07845 15.4944 8.01829 15.4585C7.95812 15.4226 7.89146 15.399 7.82212 15.389C7.75279 15.379 7.68217 15.3828 7.61431 15.4002C7.54646 15.4176 7.48273 15.4483 7.42678 15.4904C7.37084 15.5326 7.32378 15.5854 7.28834 15.6458C7.25289 15.7063 7.22975 15.7731 7.22025 15.8425C7.21075 15.9119 7.21508 15.9825 7.23299 16.0502C7.34433 16.4894 7.30146 16.9536 7.11156 17.365C6.92165 17.7763 6.59624 18.1101 6.18975 18.3102C6.06319 18.3721 5.96637 18.4816 5.92059 18.6148C5.87481 18.748 5.88382 18.894 5.94564 19.0205C6.00746 19.1471 6.11702 19.2439 6.25023 19.2897C6.38343 19.3355 6.52937 19.3264 6.65593 19.2646C6.77635 19.2057 6.89271 19.1389 7.00423 19.0645C7.16065 19.4332 7.38885 19.7671 7.67554 20.0467C7.72538 20.0958 7.78443 20.1345 7.84928 20.1607C7.91414 20.1869 7.98354 20.2 8.05347 20.1993C8.12341 20.1986 8.19252 20.184 8.25683 20.1565C8.32114 20.129 8.37938 20.0891 8.42821 20.039C8.47704 19.9889 8.51549 19.9297 8.54135 19.8647C8.56722 19.7997 8.57999 19.7303 8.57893 19.6603C8.57788 19.5904 8.56302 19.5214 8.5352 19.4572C8.50738 19.393 8.46716 19.335 8.41684 19.2864C8.11904 18.996 7.9214 18.6184 7.85252 18.2082Z" fill="#501464"/>
<path d="M12.3188 11.0362C12.6912 10.9412 13.0833 10.9572 13.4468 11.0821C13.8102 11.2071 14.1292 11.4356 14.3645 11.7396C14.5997 12.0435 14.7409 12.4096 14.7707 12.7928C14.8006 13.176 14.7177 13.5595 14.5323 13.8962C14.4987 13.9573 14.4774 14.0244 14.4697 14.0937C14.462 14.163 14.468 14.2332 14.4874 14.3001C14.5068 14.3671 14.5393 14.4296 14.5828 14.484C14.6264 14.5385 14.6802 14.5838 14.7413 14.6174C14.8024 14.6511 14.8695 14.6723 14.9388 14.68C15.0081 14.6877 15.0782 14.6817 15.1452 14.6623C15.2122 14.6429 15.2747 14.6105 15.3291 14.5669C15.3836 14.5234 15.4289 14.4695 15.4625 14.4084C15.7778 13.837 15.8994 13.1787 15.809 12.5324C15.8587 12.5349 15.9084 12.5363 15.958 12.5363C16.3613 12.5363 16.7604 12.4557 17.1322 12.2994C17.5039 12.1431 17.8407 11.9142 18.1228 11.626C18.1733 11.5766 18.2135 11.5176 18.2409 11.4525C18.2683 11.3874 18.2825 11.3175 18.2825 11.2468C18.2826 11.1761 18.2685 11.1062 18.2412 11.041C18.2139 10.9758 18.1738 10.9168 18.1233 10.8673C18.0729 10.8178 18.0131 10.7789 17.9474 10.7529C17.8817 10.7268 17.8115 10.7141 17.7408 10.7156C17.6702 10.717 17.6005 10.7325 17.5359 10.7612C17.4714 10.7899 17.4132 10.8312 17.3648 10.8827C17.1158 11.1368 16.8027 11.3187 16.4586 11.4091C16.1145 11.4995 15.7524 11.4949 15.4107 11.396C15.0766 10.8332 14.5692 10.3938 13.9645 10.1436C13.3598 9.89343 12.6903 9.84586 12.0563 10.008C11.9208 10.0438 11.805 10.1316 11.7341 10.2523C11.6631 10.3731 11.6427 10.517 11.6773 10.6527C11.7119 10.7884 11.7988 10.9049 11.919 10.9769C12.0391 11.0489 12.1828 11.0705 12.3188 11.0369V11.0362Z" fill="#501464"/>
<path d="M14.6831 32.6487C14.1697 33.0076 13.5663 33.2158 12.9408 33.2501C12.3154 33.2843 11.6928 33.1431 11.1434 32.8423C10.9238 32.1929 10.5569 31.6032 10.0712 31.1194C9.97136 31.0212 9.83674 30.9664 9.69667 30.9669C9.5566 30.9675 9.42243 31.0234 9.32339 31.1224C9.22435 31.2215 9.16845 31.3556 9.16788 31.4957C9.16731 31.6358 9.22211 31.7704 9.32035 31.8702C9.71474 32.2633 10.0057 32.7479 10.1672 33.2807C10.1737 33.3202 10.1846 33.3588 10.1998 33.3958C10.3362 33.9121 10.3474 34.4536 10.2325 34.9751C10.1177 35.4967 9.87999 35.9833 9.53928 36.3946C9.49496 36.4484 9.46168 36.5105 9.44134 36.5772C9.421 36.6439 9.41399 36.7139 9.42072 36.7833C9.42745 36.8527 9.44778 36.9201 9.48056 36.9817C9.51334 37.0432 9.55792 37.0977 9.61175 37.142C9.66559 37.1863 9.72762 37.2196 9.79432 37.24C9.86101 37.2603 9.93106 37.2673 10.0005 37.2606C10.0699 37.2538 10.1373 37.2335 10.1988 37.2007C10.2604 37.168 10.3148 37.1234 10.3592 37.0695C11.0494 36.2356 11.4096 35.1774 11.3713 34.0955C12.0245 34.3111 12.719 34.3713 13.3996 34.2713C14.0801 34.1714 14.728 33.9139 15.2916 33.5196C15.407 33.439 15.4858 33.3158 15.5104 33.1771C15.5351 33.0385 15.5036 32.8957 15.423 32.7803C15.3424 32.6648 15.2192 32.5861 15.0806 32.5614C14.9419 32.5368 14.7992 32.5682 14.6837 32.6488L14.6831 32.6487Z" fill="#501464"/>
<path d="M19.6466 5.75183C19.5058 5.75183 19.3708 5.80777 19.2712 5.90734C19.1716 6.00692 19.1157 6.14197 19.1157 6.28279V6.45977C19.1157 6.60059 19.1716 6.73564 19.2712 6.83521C19.3708 6.93479 19.5058 6.99073 19.6466 6.99073C19.7875 6.99073 19.9225 6.93479 20.0221 6.83521C20.1217 6.73564 20.1776 6.60059 20.1776 6.45977V6.28279C20.1776 6.14197 20.1217 6.00692 20.0221 5.90734C19.9225 5.80777 19.7875 5.75183 19.6466 5.75183Z" fill="#501464"/>
<path d="M19.6466 7.69861C19.5058 7.69861 19.3708 7.75455 19.2712 7.85412C19.1716 7.9537 19.1157 8.08875 19.1157 8.22956V16.3709C19.1157 16.5117 19.1716 16.6468 19.2712 16.7463C19.3708 16.8459 19.5058 16.9018 19.6466 16.9018C19.7875 16.9018 19.9225 16.8459 20.0221 16.7463C20.1217 16.6468 20.1776 16.5117 20.1776 16.3709V8.22956C20.1776 8.08875 20.1217 7.9537 20.0221 7.85412C19.9225 7.75455 19.7875 7.69861 19.6466 7.69861Z" fill="#501464"/>
<path d="M39.5587 19.4259L35.5249 18.7847C35.1951 17.4738 34.6752 16.2182 33.9817 15.0579L36.3845 11.7488C36.4588 11.6466 36.4942 11.5212 36.4843 11.3952C36.4744 11.2692 36.4199 11.1508 36.3306 11.0614L33.1329 7.86362C33.0436 7.77428 32.9253 7.71974 32.7993 7.7098C32.6733 7.69986 32.548 7.73516 32.4457 7.80937L29.1368 10.2119C27.9766 9.51783 26.721 8.99738 25.41 8.66705L24.7688 4.61851C24.7496 4.49238 24.6864 4.3771 24.5905 4.29301C24.4945 4.20893 24.3719 4.16145 24.2444 4.15896H22.4494C22.3874 3.52812 22.1949 2.91707 21.8841 2.3646C21.5813 1.83031 21.1759 1.36109 20.6913 0.983841C20.2067 0.606594 19.6523 0.328751 19.0601 0.166255C18.4678 0.00375835 17.8493 -0.0401935 17.24 0.0369211C16.6308 0.114036 16.0427 0.310699 15.5096 0.615627C14.6181 1.12609 13.9187 1.91513 13.5191 2.86154C13.1194 3.80796 13.0415 4.85941 13.2973 5.85439C12.0452 5.43593 10.7019 5.37103 9.41522 5.66682C8.12858 5.96261 6.94848 6.60763 6.00481 7.5309C5.06114 8.45416 4.39047 9.61987 4.06662 10.8997C3.74277 12.1796 3.77829 13.524 4.16927 14.785C3.32413 15.1303 2.58288 15.6887 2.0178 16.4058C1.45271 17.1229 1.08308 17.9741 0.944936 18.8766C0.80679 19.7791 0.904845 20.7019 1.22954 21.5552C1.55424 22.4085 2.09449 23.1631 2.79764 23.7454C2.56151 23.928 2.3369 24.125 2.12509 24.3353C1.45365 24.9966 0.920087 25.7845 0.555326 26.6535C0.190565 27.5225 0.00185213 28.4552 0.000119187 29.3976C-0.0180218 32.5573 2.0366 35.2564 4.86837 36.2281V38.2438C4.86541 39.2238 5.12443 40.1867 5.61862 41.033C6.1128 41.8793 6.82418 42.5781 7.67913 43.0571C8.53407 43.5361 9.50151 43.7779 10.4813 43.7575C11.4611 43.737 12.4176 43.4551 13.2518 42.9409C14.2705 43.8917 15.6116 44.4213 17.0051 44.4231C18.2275 44.422 19.4144 44.0119 20.3769 43.2582C21.3393 42.5045 22.022 41.4505 22.3161 40.264H24.2443C24.3718 40.2615 24.4943 40.2141 24.5902 40.1301C24.6862 40.0461 24.7494 39.9309 24.7687 39.8049L25.4099 35.762C26.721 35.4307 27.9766 34.9093 29.1367 34.2144L32.4458 36.615C32.5481 36.6891 32.6736 36.7243 32.7996 36.7143C32.9256 36.7042 33.0438 36.6495 33.1331 36.56L36.3311 33.3615C36.4205 33.2722 36.4751 33.1538 36.485 33.0278C36.495 32.9017 36.4596 32.7763 36.3853 32.674L33.9833 29.3648C34.6774 28.2046 35.1978 26.9489 35.5281 25.6379L39.5587 24.9967C39.6828 24.9766 39.7956 24.9126 39.8765 24.8165C39.9575 24.7203 40.0013 24.5983 40 24.4726V19.9507C40.0014 19.8248 39.9577 19.7027 39.8767 19.6064C39.7958 19.5101 39.6829 19.446 39.5587 19.4259ZM21.4165 38.9084C21.4212 39.4918 21.3102 40.0704 21.09 40.6107C20.8698 41.151 20.5448 41.6424 20.1337 42.0564C19.7225 42.4704 19.2335 42.7989 18.6947 43.0228C18.1559 43.2468 17.5782 43.3618 16.9947 43.3612C15.9327 43.3598 14.9063 42.9785 14.101 42.2862C14.6593 41.7712 15.1049 41.1461 15.4098 40.4504C15.7147 39.7547 15.8722 39.0034 15.8724 38.2438C15.8724 38.1032 15.8166 37.9684 15.7172 37.869C15.6178 37.7696 15.483 37.7138 15.3424 37.7138C15.2019 37.7138 15.0671 37.7696 14.9677 37.869C14.8683 37.9684 14.8125 38.1032 14.8125 38.2438C14.8151 38.8287 14.7021 39.4083 14.4801 39.9494C14.2581 40.4905 13.9314 40.9824 13.5187 41.3969C13.1061 41.8114 12.6156 42.1403 12.0755 42.3647C11.5354 42.5892 10.9563 42.7047 10.3714 42.7047C9.78654 42.7047 9.20742 42.5892 8.66731 42.3647C8.1272 42.1403 7.63674 41.8114 7.22409 41.3969C6.81144 40.9824 6.48473 40.4905 6.26272 39.9494C6.0407 39.4083 5.92776 38.8287 5.93037 38.2438V36.5025C6.32303 36.5849 6.72269 36.6296 7.12387 36.6358H7.20546C7.34628 36.635 7.48104 36.5784 7.5801 36.4783C7.67916 36.3782 7.7344 36.2429 7.73367 36.1021C7.73294 35.9613 7.67631 35.8265 7.57622 35.7274C7.47613 35.6284 7.34079 35.5731 7.19997 35.5739H7.12918C6.6145 35.5693 6.10258 35.4982 5.60613 35.3624C5.55252 35.3345 5.49456 35.3159 5.43472 35.3074C4.02445 34.8913 2.8113 33.981 2.01747 32.7433C1.22363 31.5056 0.902247 30.0233 1.11217 28.568C1.3221 27.1127 2.04929 25.7817 3.16055 24.8188C4.27182 23.8559 5.69277 23.3256 7.16316 23.325H7.20236C7.34318 23.3254 7.47838 23.2698 7.57823 23.1705C7.67808 23.0712 7.73439 22.9363 7.73478 22.7955C7.73517 22.6547 7.6796 22.5195 7.5803 22.4196C7.481 22.3198 7.3461 22.2634 7.20528 22.2631C5.99496 22.2521 4.80191 22.5506 3.73938 23.1303C3.12026 22.6952 2.62947 22.1018 2.31838 21.412C2.00729 20.7222 1.88735 19.9615 1.9711 19.2094C2.05485 18.4574 2.33921 17.7417 2.79443 17.1372C3.24965 16.5328 3.85898 16.0618 4.55864 15.7736C4.63587 15.934 4.71943 16.0923 4.80934 16.2484C4.87975 16.3704 4.99573 16.4594 5.13176 16.4958C5.2678 16.5323 5.41274 16.5132 5.53472 16.4428C5.65669 16.3724 5.7457 16.2564 5.78216 16.1204C5.81862 15.9844 5.79954 15.8394 5.72914 15.7174C5.02713 14.5009 4.76529 13.0798 4.98762 11.6929C5.20995 10.306 5.90289 9.03799 6.94999 8.10184C7.9971 7.16569 9.33454 6.61851 10.7375 6.55226C12.1405 6.48601 13.5236 6.90473 14.6542 7.73805C14.7103 7.77986 14.7742 7.81018 14.842 7.82725C14.9099 7.84432 14.9804 7.84781 15.0496 7.83752C15.1188 7.82723 15.1853 7.80337 15.2453 7.7673C15.3052 7.73122 15.3575 7.68366 15.399 7.62733C15.4405 7.57101 15.4705 7.50703 15.4872 7.43909C15.5039 7.37114 15.507 7.30056 15.4963 7.23141C15.4856 7.16226 15.4614 7.0959 15.425 7.03614C15.3886 6.97639 15.3408 6.92441 15.2842 6.88321C15.09 6.74009 14.8887 6.6068 14.6811 6.48384L14.6888 6.47951C14.334 5.85713 14.1717 5.14352 14.2224 4.42891C14.2731 3.71429 14.5346 3.03075 14.9737 2.46471C15.4128 1.89866 16.0099 1.47553 16.6895 1.2488C17.3691 1.02207 18.1007 1.00193 18.7917 1.19092C19.2483 1.31568 19.6753 1.53026 20.0479 1.82211C20.4205 2.11396 20.7312 2.47721 20.9616 2.8906C21.2667 3.439 21.4235 4.05747 21.4165 4.68496V38.9084ZM22.4784 19.7345C23.045 19.8562 23.5527 20.1685 23.9168 20.6193C24.281 21.07 24.4797 21.632 24.4797 22.2115C24.4797 22.791 24.281 23.3529 23.9168 23.8037C23.5527 24.2544 23.045 24.5667 22.4784 24.6885V19.7345ZM22.4784 25.7675C23.3303 25.64 24.1081 25.2109 24.6703 24.5582C25.2324 23.9056 25.5417 23.0728 25.5417 22.2115C25.5417 21.3501 25.2324 20.5173 24.6703 19.8647C24.1081 19.2121 23.3303 18.7829 22.4784 18.6554V15.9926C24.0365 16.1251 25.488 16.8378 26.5458 17.9894C27.6036 19.141 28.1906 20.6478 28.1906 22.2115C28.1906 23.7752 27.6036 25.2819 26.5458 26.4335C25.488 27.5852 24.0365 28.2978 22.4784 28.4304V25.7675ZM38.938 24.0194L35.0042 24.645C34.8996 24.6618 34.8025 24.7097 34.7255 24.7825C34.6486 24.8553 34.5953 24.9496 34.5727 25.0531C34.2507 26.4903 33.683 27.8612 32.8947 29.1053C32.838 29.1952 32.8095 29.3001 32.813 29.4063C32.8166 29.5125 32.8519 29.6153 32.9144 29.7012L35.2595 32.9312L32.7029 35.4879L29.473 33.1436C29.3869 33.0811 29.2842 33.046 29.1779 33.0426C29.0717 33.0392 28.9669 33.0678 28.8771 33.1247C27.633 33.9135 26.2621 34.4817 24.8248 34.8042C24.7203 34.83 24.6258 34.8861 24.5532 34.9655C24.4806 35.0449 24.4332 35.1441 24.4168 35.2504L23.7911 39.2021H22.4706C22.4756 39.1047 22.4784 39.0067 22.4784 38.9084V32.4556C27.8965 32.1787 32.223 27.6897 32.223 22.2115C32.2302 20.0432 31.5468 17.929 30.2717 16.1752C30.1893 16.061 30.065 15.9842 29.9259 15.9616C29.7869 15.9391 29.6447 15.9727 29.5304 16.0551C29.4162 16.1374 29.3394 16.2618 29.3169 16.4008C29.2943 16.5398 29.3279 16.6821 29.4103 16.7963C30.3796 18.1346 30.971 19.7091 31.1223 21.3546C31.2737 23.0002 30.9795 24.6561 30.2705 26.1488C29.5616 27.6414 28.4641 28.9158 27.0931 29.8383C25.7221 30.7609 24.1282 31.2975 22.4784 31.3919V29.4953C24.3188 29.3616 26.0404 28.5361 27.297 27.1849C28.5537 25.8336 29.2522 24.0567 29.2522 22.2115C29.2522 20.3662 28.5537 18.5893 27.297 17.2381C26.0404 15.8868 24.3188 15.0614 22.4784 14.9276V13.0321C24.0148 13.1165 25.5049 13.5884 26.8098 14.4038C26.9113 14.468 27.0315 14.4961 27.151 14.4834C27.2704 14.4707 27.3821 14.418 27.4678 14.3338L27.472 14.3299C27.5289 14.2737 27.5724 14.2054 27.5993 14.13C27.6261 14.0546 27.6356 13.9742 27.6269 13.8946C27.6183 13.8151 27.5918 13.7385 27.5494 13.6707C27.5071 13.6028 27.4499 13.5454 27.3822 13.5027C25.9087 12.5739 24.2186 12.045 22.4784 11.9682V5.22087H23.7911L24.4169 9.1726C24.4334 9.27827 24.4811 9.37661 24.5538 9.45506C24.6264 9.53351 24.7209 9.58852 24.825 9.61303C26.2624 9.93661 27.6333 10.5058 28.8772 11.2955C28.9669 11.3526 29.0717 11.3814 29.1779 11.3782C29.2841 11.3751 29.387 11.3401 29.4731 11.2778L32.7031 8.9342L35.2599 11.4916L32.9155 14.7216C32.853 14.8077 32.8178 14.9105 32.8145 15.0167C32.8111 15.123 32.8397 15.2278 32.8966 15.3176C33.6854 16.5617 34.2536 17.9326 34.5762 19.37C34.5981 19.4732 34.6508 19.5675 34.7272 19.6403C34.8036 19.7131 34.9003 19.7611 35.0045 19.778L38.938 20.4036V24.0194Z" fill="#501464"/>
</svg>
