<svg width="32" height="31" viewBox="0 0 32 31" fill="none" xmlns="http://www.w3.org/2000/svg">
<path d="M10.8125 24.875C10.8125 24.75 10.6875 24.625 10.5 24.625C10.3125 24.625 10.1875 24.75 10.1875 24.875C10.1875 25 10.3125 25.125 10.5 25.0625C10.6875 25.0625 10.8125 25 10.8125 24.875ZM8.875 24.5625C8.875 24.6875 9 24.875 9.1875 24.875C9.3125 24.9375 9.5 24.875 9.5625 24.75C9.5625 24.625 9.5 24.5 9.3125 24.4375C9.125 24.375 8.9375 24.4375 8.875 24.5625ZM11.6875 24.5C11.5 24.5 11.375 24.625 11.375 24.8125C11.375 24.9375 11.5625 25 11.75 24.9375C11.9375 24.875 12.0625 24.8125 12 24.6875C12 24.5625 11.8125 24.4375 11.6875 24.5ZM15.75 0.5C7.125 0.5 0.5 7.125 0.5 15.75C0.5 22.6875 4.8125 28.625 11.0625 30.75C11.875 30.875 12.125 30.375 12.125 30C12.125 29.5625 12.125 27.4375 12.125 26.125C12.125 26.125 7.75 27.0625 6.8125 24.25C6.8125 24.25 6.125 22.4375 5.125 22C5.125 22 3.6875 21 5.1875 21C5.1875 21 6.75 21.125 7.625 22.625C9 25.0625 11.25 24.375 12.1875 23.9375C12.3125 22.9375 12.6875 22.25 13.1875 21.8125C9.6875 21.4375 6.125 20.9375 6.125 14.9375C6.125 13.1875 6.625 12.375 7.625 11.25C7.4375 10.8125 6.9375 9.1875 7.8125 7C9.0625 6.625 12.125 8.6875 12.125 8.6875C13.375 8.3125 14.6875 8.1875 16 8.1875C17.375 8.1875 18.6875 8.3125 19.9375 8.6875C19.9375 8.6875 22.9375 6.5625 24.25 7C25.125 9.1875 24.5625 10.8125 24.4375 11.25C25.4375 12.375 26.0625 13.1875 26.0625 14.9375C26.0625 20.9375 22.375 21.4375 18.875 21.8125C19.4375 22.3125 19.9375 23.25 19.9375 24.75C19.9375 26.8125 19.875 29.4375 19.875 29.9375C19.875 30.375 20.1875 30.875 21 30.6875C27.25 28.625 31.5 22.6875 31.5 15.75C31.5 7.125 24.4375 0.5 15.75 0.5ZM6.5625 22.0625C6.4375 22.125 6.5 22.3125 6.5625 22.4375C6.6875 22.5 6.8125 22.5625 6.9375 22.5C7 22.4375 7 22.25 6.875 22.125C6.75 22.0625 6.625 22 6.5625 22.0625ZM5.875 21.5625C5.8125 21.6875 5.875 21.75 6 21.8125C6.125 21.875 6.25 21.875 6.3125 21.75C6.3125 21.6875 6.25 21.625 6.125 21.5625C6 21.5 5.9375 21.5 5.875 21.5625ZM7.875 23.8125C7.8125 23.875 7.8125 24.0625 8 24.1875C8.125 24.3125 8.3125 24.375 8.375 24.25C8.4375 24.1875 8.4375 24 8.3125 23.875C8.1875 23.75 8 23.6875 7.875 23.8125ZM7.1875 22.875C7.0625 22.9375 7.0625 23.125 7.1875 23.25C7.3125 23.375 7.4375 23.4375 7.5625 23.375C7.625 23.3125 7.625 23.125 7.5625 23C7.4375 22.875 7.3125 22.8125 7.1875 22.875Z" fill="#501464"/>
</svg>
