<svg width="40" height="42" viewBox="0 0 40 42" fill="none" xmlns="http://www.w3.org/2000/svg">
<path d="M20.8888 35.1933C21.1342 35.1933 21.3332 34.9944 21.3332 34.7489C21.3332 34.5034 21.1342 34.3044 20.8888 34.3044C20.6433 34.3044 20.4443 34.5034 20.4443 34.7489C20.4443 34.9944 20.6433 35.1933 20.8888 35.1933Z" fill="#501464"/>
<path d="M19.111 35.1933C19.3565 35.1933 19.5554 34.9944 19.5554 34.7489C19.5554 34.5034 19.3565 34.3044 19.111 34.3044C18.8655 34.3044 18.6665 34.5034 18.6665 34.7489C18.6665 34.9944 18.8655 35.1933 19.111 35.1933Z" fill="#501464"/>
<path d="M17.3332 35.1933C17.5787 35.1933 17.7777 34.9944 17.7777 34.7489C17.7777 34.5034 17.5787 34.3044 17.3332 34.3044C17.0877 34.3044 16.8888 34.5034 16.8888 34.7489C16.8888 34.9944 17.0877 35.1933 17.3332 35.1933Z" fill="#501464"/>
<path d="M11.9999 32.9712C12.2453 32.9712 12.4443 32.7722 12.4443 32.5267C12.4443 32.2813 12.2453 32.0823 11.9999 32.0823C11.7544 32.0823 11.5554 32.2813 11.5554 32.5267C11.5554 32.7722 11.7544 32.9712 11.9999 32.9712Z" fill="#501464"/>
<path d="M24.727 18.8791C24.5533 18.7053 24.2724 18.7053 24.0986 18.8791C23.9248 19.0529 23.9248 19.3338 24.0986 19.5076C25.0519 20.4609 26.3035 20.9373 27.5555 20.9373C28.8075 20.9373 30.0595 20.4609 31.0124 19.5076C31.1862 19.3338 31.1862 19.0529 31.0124 18.8791C30.8386 18.7053 30.5577 18.7053 30.384 18.8791C28.824 20.4391 26.2871 20.4391 24.727 18.8791Z" fill="#501464"/>
<path d="M39.5556 0.526611H36.8889C36.6431 0.526611 36.4444 0.725279 36.4444 0.971058C36.4444 1.21684 36.6431 1.4155 36.8889 1.4155H38.4827L34.2222 5.67597L31.4253 2.87907C31.2515 2.70529 30.9706 2.70529 30.7968 2.87907L28.8075 4.86841C25.7626 2.18217 21.7897 0.570167 17.5083 0.5275C8.35052 0.449722 0.322484 8.09687 0.010038 17.256C-0.129074 21.3454 1.1816 25.3609 3.70072 28.5632C6.47273 32.0876 7.99985 36.4943 7.99985 40.9712C7.99985 41.217 8.19852 41.4157 8.4443 41.4157H24.4444C24.6901 41.4157 24.8888 41.217 24.8888 40.9712V35.1934H32.4444C33.6698 35.1934 34.6666 34.1965 34.6666 32.9712V26.3045H37.3204C38.3075 26.3045 39.1111 25.5009 39.1111 24.5138C39.1111 24.1383 38.9956 23.7783 38.7773 23.4729L38.2315 22.7085C36.384 20.1223 35.0093 17.0667 34.1458 13.6267C33.3466 10.4431 31.6893 7.65287 29.4595 5.4733L31.1111 3.82174L33.908 6.61864C34.0817 6.79242 34.3626 6.79242 34.5364 6.61864L39.1111 2.04395V3.63774C39.1111 3.88352 39.3098 4.08218 39.5556 4.08218C39.8013 4.08218 40 3.88352 40 3.63774V0.971058C40 0.725279 39.8013 0.526611 39.5556 0.526611ZM33.284 13.8431C34.1746 17.3911 35.596 20.548 37.5089 23.2249L38.0547 23.9894C38.164 24.1436 38.2222 24.3245 38.2222 24.5138C38.2222 25.0112 37.8178 25.4156 37.3204 25.4156H34.2222C33.9764 25.4156 33.7777 25.6143 33.7777 25.8601V28.9712H30.6666C29.9315 28.9712 29.3333 28.373 29.3333 27.6378V27.1934C29.3333 26.9476 29.1346 26.749 28.8888 26.749C28.6431 26.749 28.4444 26.9476 28.4444 27.1934V27.6378C28.4444 28.8632 29.4413 29.8601 30.6666 29.8601H33.7777V32.9712C33.7777 33.7063 33.1795 34.3045 32.4444 34.3045H25.5173L23.5555 32.3428V24.5267C23.5555 24.4085 23.5088 24.2956 23.4253 24.2125L21.3332 22.1205V16.9711C21.3332 16.7254 21.1346 16.5267 20.8888 16.5267C20.643 16.5267 20.4444 16.7254 20.4444 16.9711V22.3045C20.4444 22.4227 20.491 22.5356 20.5746 22.6187L22.6666 24.7107V32.5268C22.6666 32.645 22.7133 32.7579 22.7968 32.841L24.2604 34.3045H22.6666C22.4208 34.3045 22.2221 34.5032 22.2221 34.749C22.2221 34.9948 22.4208 35.1934 22.6666 35.1934H23.9999V40.5268H12.4443V34.3045C12.4443 34.0588 12.2456 33.8601 11.9999 33.8601C11.7541 33.8601 11.5554 34.0588 11.5554 34.3045V40.5268H8.88386C8.78608 36.0046 7.20252 31.5774 4.39939 28.0138C3.86339 27.3325 3.38872 26.6112 2.97094 25.8601H7.99985C8.24563 25.8601 8.4443 25.6614 8.4443 25.4156C8.4443 25.1698 8.24563 24.9712 7.99985 24.9712H2.50738C2.29849 24.5352 2.10871 24.0903 1.93938 23.6378H7.99985C8.24563 23.6378 8.4443 23.4392 8.4443 23.1934C8.4443 22.9476 8.24563 22.7489 7.99985 22.7489H1.63805C1.5016 22.3098 1.38249 21.8654 1.28293 21.4156H7.99985C8.24563 21.4156 8.4443 21.2169 8.4443 20.9711C8.4443 20.7254 8.24563 20.5267 7.99985 20.5267H1.11227C0.936709 19.4623 0.861153 18.3774 0.898487 17.2862C1.19271 8.64798 8.70741 1.4155 17.3461 1.4155C17.3968 1.4155 17.4483 1.41595 17.4999 1.41639C21.5421 1.45639 25.295 2.97151 28.1782 5.49775L26.551 7.12486C25.9679 6.58575 25.179 6.26619 24.3124 6.30753C23.9257 5.0133 22.7128 4.08218 21.3332 4.08218C20.8884 4.08218 20.4537 4.17596 20.0541 4.35641C19.5137 3.37774 18.4755 2.74884 17.3332 2.74884C16.191 2.74884 15.1528 3.37774 14.6123 4.35641C14.2128 4.17596 13.7781 4.08218 13.3332 4.08218C11.9536 4.08218 10.7408 5.0133 10.3541 6.30753C8.57274 6.22042 7.11096 7.65642 7.11096 9.41554C7.11096 9.45954 7.11185 9.5031 7.11407 9.54754C5.81984 9.93421 4.88873 11.1471 4.88873 12.5267C4.88873 14.2418 6.28473 15.6378 7.99985 15.6378V16.0822C7.99985 17.1551 8.76474 18.0529 9.77764 18.2596V39.1935C9.77764 39.4392 9.97631 39.6379 10.2221 39.6379C10.4679 39.6379 10.6665 39.4392 10.6665 39.1935V18.3045H13.7777V19.8983L11.6856 21.9903C11.6021 22.0734 11.5554 22.1863 11.5554 22.3045V30.749C11.5554 30.9948 11.7541 31.1934 11.9999 31.1934C12.2456 31.1934 12.4443 30.9948 12.4443 30.749V22.4885L14.5363 20.3965C14.6199 20.3134 14.6665 20.2005 14.6665 20.0823V18.2596C15.6794 18.0529 16.4443 17.1556 16.4443 16.0822V15.6378H18.2221V18.5649L15.6857 21.1014C15.6021 21.1845 15.5554 21.2974 15.5554 21.4156V25.6761L13.9079 27.3236C13.8243 27.4067 13.7777 27.5196 13.7777 27.6378V30.3045C13.7777 30.5503 13.9763 30.749 14.2221 30.749C14.4679 30.749 14.6665 30.5503 14.6665 30.3045V27.8218L15.5554 26.933V32.5268C15.5554 32.7725 15.7541 32.9712 15.9999 32.9712C16.2457 32.9712 16.4443 32.7725 16.4443 32.5268V23.3774L18.2221 25.1552V28.5267C18.2221 28.7725 18.4208 28.9712 18.6666 28.9712C18.9123 28.9712 19.111 28.7725 19.111 28.5267V24.9712C19.111 24.8529 19.0643 24.7401 18.9808 24.6569L16.4443 22.1205V21.5996L18.9808 19.0631C19.0643 18.98 19.111 18.8671 19.111 18.7489V15.6378H26.6666C28.3817 15.6378 29.7777 14.2418 29.7777 12.5267C29.7777 11.1471 28.8466 9.93421 27.5524 9.54754C27.5546 9.5031 27.5555 9.45954 27.5555 9.41554C27.5555 8.83287 27.3928 8.28754 27.1137 7.81909L28.8311 6.10175C30.9497 8.17065 32.5249 10.82 33.284 13.8431ZM26.6666 9.41554C26.6666 9.5431 26.6542 9.67288 26.6288 9.81376C26.607 9.93199 26.6346 10.0538 26.7044 10.152C26.7742 10.2498 26.8808 10.3147 26.9999 10.3329C28.0768 10.4947 28.8888 11.4378 28.8888 12.5267C28.8888 13.752 27.8919 14.7489 26.6666 14.7489H15.9999C15.7541 14.7489 15.5554 14.9476 15.5554 15.1933V16.0822C15.5554 16.8174 14.9572 17.4156 14.2221 17.4156H10.2221C9.48697 17.4156 8.88875 16.8174 8.88875 16.0822V15.6378H14.2221C14.4679 15.6378 14.6665 15.4391 14.6665 15.1933C14.6665 14.9476 14.4679 14.7489 14.2221 14.7489H7.99985C6.77451 14.7489 5.77762 13.752 5.77762 12.5267C5.77762 11.4378 6.58962 10.4947 7.66652 10.3324C7.77141 10.3147 7.88963 10.3044 7.99985 10.3044C8.25452 10.3044 8.50385 10.3471 8.7403 10.4307C8.97008 10.512 9.22564 10.3915 9.30741 10.1604C9.38919 9.92932 9.2683 9.6751 9.03719 9.59332C8.70519 9.47554 8.3563 9.41554 7.99985 9.41554C7.99985 8.1902 8.99675 7.19331 10.2221 7.19331C10.8403 7.19331 11.4688 7.47464 11.8794 7.9342C11.967 8.03242 12.0883 8.0822 12.2105 8.0822C12.3159 8.0822 12.4221 8.04487 12.507 7.96887C12.6897 7.80531 12.7052 7.52442 12.5417 7.34131C12.1839 6.94131 11.7305 6.6502 11.2328 6.47997C11.5336 5.59775 12.3768 4.97108 13.3332 4.97108C13.671 4.97108 13.9999 5.04797 14.2994 5.1933C14.251 5.40797 14.2221 5.63019 14.2221 5.85997C14.2221 6.10575 14.4208 6.30442 14.6665 6.30442C14.9123 6.30442 15.111 6.10575 15.111 5.85997C15.111 4.95996 15.6777 4.12929 16.5132 3.79552C16.7737 3.69151 17.0532 3.63774 17.3332 3.63774C18.1715 3.63774 18.9288 4.11418 19.3052 4.84708C18.6452 5.41774 18.2221 6.25464 18.2221 7.19331C18.2221 7.43909 18.4208 7.63775 18.6666 7.63775C18.9123 7.63775 19.111 7.43909 19.111 7.19331C19.111 6.28442 19.707 5.4293 20.5617 5.1133C20.8088 5.02219 21.0692 4.97108 21.3332 4.97108C22.291 4.97108 23.1346 5.59952 23.4346 6.48353C23.2461 6.54664 23.0613 6.62086 22.8884 6.72086C22.6759 6.84353 22.603 7.11553 22.7266 7.32798C22.8488 7.54042 23.1204 7.61331 23.3337 7.48975C23.5919 7.34042 23.8804 7.25375 24.1768 7.2182C24.2675 7.20753 24.3586 7.19331 24.4444 7.19331C25.0102 7.19331 25.5213 7.41242 25.9142 7.76175L22.2221 11.4538L19.8697 9.10132C19.6959 8.92754 19.415 8.92754 19.2412 9.10132L16.8888 11.4538L14.5363 9.10132C14.3625 8.92754 14.0817 8.92754 13.9079 9.10132L11.5554 11.4538L10.9808 10.8791C10.807 10.7053 10.5261 10.7053 10.3523 10.8791C10.1785 11.0529 10.1785 11.3338 10.3523 11.5076L12.1301 13.2853C12.2168 13.372 12.3305 13.4156 12.4443 13.4156C12.5581 13.4156 12.6719 13.372 12.7585 13.2853C12.9323 13.1116 12.9323 12.8307 12.7585 12.6569L12.1839 12.0822L14.2221 10.044L16.5746 12.3964C16.7483 12.5702 17.0292 12.5702 17.203 12.3964L19.5555 10.044L21.9079 12.3964C21.9946 12.4831 22.1084 12.5267 22.2221 12.5267C22.3359 12.5267 22.4497 12.4831 22.5364 12.3964L26.4528 8.47998C26.5866 8.76532 26.6666 9.08043 26.6666 9.41554Z" fill="#501464"/>
<path d="M2.66652 19.1933C2.91198 19.1933 3.11097 18.9944 3.11097 18.7489C3.11097 18.5034 2.91198 18.3044 2.66652 18.3044C2.42106 18.3044 2.22208 18.5034 2.22208 18.7489C2.22208 18.9944 2.42106 19.1933 2.66652 19.1933Z" fill="#501464"/>
<path d="M2.66652 17.4156C2.91198 17.4156 3.11097 17.2166 3.11097 16.9712C3.11097 16.7257 2.91198 16.5267 2.66652 16.5267C2.42106 16.5267 2.22208 16.7257 2.22208 16.9712C2.22208 17.2166 2.42106 17.4156 2.66652 17.4156Z" fill="#501464"/>
<path d="M2.66652 15.6378C2.91198 15.6378 3.11097 15.4388 3.11097 15.1933C3.11097 14.9479 2.91198 14.7489 2.66652 14.7489C2.42106 14.7489 2.22208 14.9479 2.22208 15.1933C2.22208 15.4388 2.42106 15.6378 2.66652 15.6378Z" fill="#501464"/>
<path d="M4.44429 19.1933C4.68975 19.1933 4.88874 18.9944 4.88874 18.7489C4.88874 18.5034 4.68975 18.3044 4.44429 18.3044C4.19883 18.3044 3.99985 18.5034 3.99985 18.7489C3.99985 18.9944 4.19883 19.1933 4.44429 19.1933Z" fill="#501464"/>
<path d="M4.44429 17.4156C4.68975 17.4156 4.88874 17.2166 4.88874 16.9712C4.88874 16.7257 4.68975 16.5267 4.44429 16.5267C4.19883 16.5267 3.99985 16.7257 3.99985 16.9712C3.99985 17.2166 4.19883 17.4156 4.44429 17.4156Z" fill="#501464"/>
<path d="M6.22208 19.1933C6.46754 19.1933 6.66653 18.9944 6.66653 18.7489C6.66653 18.5034 6.46754 18.3044 6.22208 18.3044C5.97662 18.3044 5.77763 18.5034 5.77763 18.7489C5.77763 18.9944 5.97662 19.1933 6.22208 19.1933Z" fill="#501464"/>
</svg>
