<svg width="46" height="49" viewBox="0 0 46 49" fill="none" xmlns="http://www.w3.org/2000/svg">
<path d="M21.4483 6.62995C21.4483 5.34435 20.4063 4.30237 19.1207 4.30237C17.8351 4.30237 16.7931 5.34435 16.7931 6.62995C16.7931 6.92633 16.8536 7.2072 16.9545 7.46789C15.5354 7.75263 14.4655 9.00564 14.4655 10.5093C14.4655 12.0129 15.5354 13.2659 16.9545 13.5506C16.8536 13.8113 16.7931 14.0922 16.7931 14.3886C16.7931 15.6742 17.8351 16.7162 19.1207 16.7162C20.4063 16.7162 21.4483 15.6742 21.4483 14.3886V6.62995Z" fill="#501464" fill-opacity="0.75"/>
<path d="M24.5517 6.62995C24.5517 5.34435 25.5937 4.30237 26.8793 4.30237C28.1649 4.30237 29.2069 5.34435 29.2069 6.62995C29.2069 6.92633 29.1464 7.2072 29.0455 7.46789C30.4646 7.75263 31.5345 9.00564 31.5345 10.5093C31.5345 12.0129 30.4646 13.2659 29.0455 13.5506C29.1464 13.8113 29.2069 14.0922 29.2069 14.3886C29.2069 15.6742 28.1649 16.7162 26.8793 16.7162C25.5937 16.7162 24.5517 15.6742 24.5517 14.3886V6.62995Z" fill="#501464" fill-opacity="0.75"/>
<path d="M43.9483 4.17749V1.19896C43.9483 0.769906 43.6015 0.423096 43.1724 0.423096H40.069C38.7857 0.423096 37.7414 1.46741 37.7414 2.75068V4.30241C37.7414 4.73146 38.0882 5.07827 38.5172 5.07827H39.3955L39.8238 8.07775L39.6741 7.95827C37.8709 6.51749 35.2353 6.23818 33.1731 7.27008L31.4817 8.11577C31.086 7.61068 30.5647 7.20646 29.9564 6.94654C29.9688 6.8418 29.9828 6.73706 29.9828 6.62999C29.9828 4.91844 28.5909 3.52654 26.8793 3.52654C25.1678 3.52654 23.7759 4.91844 23.7759 6.62999V14.3886C23.7759 15.8309 24.7682 17.0351 26.1034 17.3819V20.9648C24.7092 20.2363 23.1272 19.8196 21.4483 19.8196C20.9191 19.8196 20.404 19.8732 19.8966 19.9515V17.3819C21.2318 17.0351 22.2241 15.8309 22.2241 14.3886V6.62999C22.2241 4.91844 20.8322 3.52654 19.1207 3.52654C17.4091 3.52654 16.0172 4.91844 16.0172 6.62999C16.0172 6.73706 16.0312 6.8418 16.0421 6.94654C15.4346 7.20646 14.9124 7.61068 14.5167 8.11577L12.8253 7.27008C10.7623 6.23741 8.1275 6.51594 6.3244 7.95827L6.17466 8.07775L6.60448 5.07827H7.48276C7.91181 5.07827 8.25862 4.73146 8.25862 4.30241V2.75068C8.25862 1.46741 7.21431 0.423096 5.93103 0.423096H2.82759C2.39853 0.423096 2.05172 0.769906 2.05172 1.19896V4.17749L1.52103 5.76801C0.842931 7.80077 0.5 9.91732 0.5 12.061C0.5 12.3046 0.614828 12.5351 0.810345 12.6817C2.94474 14.2823 5.59121 15.1645 8.25862 15.1645H9.3906C11.3085 15.1645 13.2272 14.7114 14.9419 13.854L15.3252 13.6624C15.5494 13.823 15.7876 13.9642 16.0436 14.0744C16.0335 14.1791 16.0172 14.2823 16.0172 14.3886C16.0172 15.8309 17.0096 17.0351 18.3448 17.3819V20.3131C14.2979 21.6259 11.3621 25.4276 11.3621 29.9059V30.7399C11.3621 33.384 11.9067 35.9506 12.9805 38.3674C13.9659 40.5848 14.4655 42.9388 14.4655 45.3649V48.5265H16.0172V45.3649C16.0172 42.7208 15.4726 40.1542 14.3988 37.7374C13.4134 35.52 12.9138 33.166 12.9138 30.7399V29.9059C12.9138 26.2958 15.1708 23.2094 18.3448 21.9641V28.3541H16.7931V29.9059H18.3448V32.2334C18.3448 32.6625 18.6916 33.0093 19.1207 33.0093H23C23.4291 33.0093 23.7759 32.6625 23.7759 32.2334V29.9059H26.8793C27.3084 29.9059 27.6552 29.559 27.6552 29.13V24.0667C29.0936 25.5952 29.9828 27.6465 29.9828 29.9059C29.9828 30.0261 30.0107 30.1456 30.0642 30.2527L32.6067 35.3369H30.7586C30.3296 35.3369 29.9828 35.6837 29.9828 36.1128V42.3196H23.7759V43.8714H25.3276V48.5265H26.8793V43.8714H30.7586C31.1877 43.8714 31.5345 43.5246 31.5345 43.0955V36.8886H33.8621C34.1313 36.8886 34.3803 36.749 34.5223 36.5201C34.6643 36.2912 34.6767 36.0057 34.5565 35.7652L31.5337 29.7189C31.4763 26.5735 29.968 23.7812 27.6559 21.9688V17.3811C28.9912 17.0343 29.9835 15.8302 29.9835 14.3878C29.9835 14.2815 29.9672 14.1784 29.9572 14.0736C30.2132 13.9634 30.4514 13.8222 30.6756 13.6616L31.0589 13.8533C32.7728 14.7114 34.6915 15.1645 36.6094 15.1645H37.7414C40.4088 15.1645 43.0553 14.2823 45.1897 12.6817C45.3852 12.5359 45.5 12.3054 45.5 12.061C45.5 9.91732 45.1571 7.80077 44.479 5.76801L43.9483 4.17749ZM3.60345 1.97482H5.93103C6.35931 1.97482 6.7069 2.32241 6.7069 2.75068V3.52654H3.60345V1.97482ZM8.25862 13.6128C6.05362 13.6128 3.86647 12.9238 2.05638 11.6669C2.09517 9.82577 2.41017 8.00792 2.99284 6.25835L3.38621 5.07827H5.03569L4.40491 9.49448L3.89362 9.90335L4.86345 11.1153L7.29422 9.17016C8.63569 8.0956 10.5978 7.88999 12.1309 8.6581L13.8324 9.50922C13.7478 9.8312 13.6897 10.164 13.6897 10.5093C13.6897 11.227 13.8991 11.8919 14.2405 12.4691C12.7423 13.2171 11.0649 13.6128 9.3906 13.6128H8.25862ZM17.569 14.3886C18.2525 14.3886 18.9228 14.2094 19.5102 13.8688L18.7312 12.5265C18.3813 12.729 17.9786 12.8369 17.569 12.8369C16.2857 12.8369 15.2414 11.7926 15.2414 10.5093C15.2414 9.59456 15.7752 8.78301 16.5782 8.40516C16.9413 8.92499 17.4611 9.33542 18.0865 9.55577L18.6032 8.09327C17.9848 7.87447 17.569 7.28637 17.569 6.62999C17.569 5.77422 18.2649 5.07827 19.1207 5.07827C19.9765 5.07827 20.6724 5.77422 20.6724 6.62999V14.3886C20.6724 15.2444 19.9765 15.9403 19.1207 15.9403C18.2649 15.9403 17.569 15.2444 17.569 14.3886ZM22.2241 31.4576H19.8966V29.9059H22.2241V31.4576ZM23.7759 28.3541V26.8024H22.2241V28.3541H19.8966V21.5196C20.4009 21.4265 20.9176 21.3714 21.4483 21.3714C23.166 21.3714 24.7635 21.8858 26.1034 22.7617V28.3541H23.7759ZM39.2931 2.75068C39.2931 2.32241 39.6407 1.97482 40.069 1.97482H42.3966V3.52654H39.2931V2.75068ZM28.431 12.8369C28.0214 12.8369 27.6187 12.729 27.2688 12.5265L26.4898 13.8688C27.0772 14.2094 27.7475 14.3886 28.431 14.3886C28.431 15.2444 27.7351 15.9403 26.8793 15.9403C26.0235 15.9403 25.3276 15.2444 25.3276 14.3886V6.62999C25.3276 5.77422 26.0235 5.07827 26.8793 5.07827C27.7351 5.07827 28.431 5.77422 28.431 6.62999C28.431 7.28637 28.0152 7.87448 27.3968 8.09404L27.9135 9.55654C28.5389 9.3362 29.0587 8.92577 29.4218 8.40594C30.2248 8.78301 30.7586 9.59456 30.7586 10.5093C30.7586 11.7926 29.7143 12.8369 28.431 12.8369ZM37.7414 13.6128H36.6094C34.9351 13.6128 33.2577 13.2171 31.7595 12.4691C32.1009 11.8919 32.3103 11.227 32.3103 10.5093C32.3103 10.164 32.2522 9.8312 32.166 9.50922L33.8675 8.6581C35.4014 7.88999 37.3628 8.0956 38.7042 9.17016L41.135 11.1153L42.1048 9.90335L41.5935 9.49448L40.9635 5.07827H42.613L43.0064 6.25835C43.5891 8.00792 43.9041 9.82577 43.9428 11.6669C42.1335 12.9238 39.9464 13.6128 37.7414 13.6128Z" fill="#501464"/>
<path d="M22.2242 23.699H23.7759V25.2507H22.2242V23.699Z" fill="#501464"/>
<path d="M13.6897 28.3542H15.2414V29.906H13.6897V28.3542Z" fill="#501464"/>
</svg>
