<svg width="40" height="41" viewBox="0 0 40 41" fill="none" xmlns="http://www.w3.org/2000/svg">
<path d="M32.7915 31.5294C31.8349 31.5267 30.903 31.8325 30.1338 32.4013L27.5451 29.8125C27.1504 29.4212 26.6168 29.2022 26.061 29.2034C25.5053 29.2046 24.9726 29.4259 24.5796 29.8189C24.1866 30.2119 23.9653 30.7445 23.9641 31.3003C23.9629 31.8561 24.1819 32.3897 24.5732 32.7844L25.107 33.3182H20.6732V29.0393C20.6732 28.9025 20.6316 28.769 20.5539 28.6565C20.4761 28.544 20.366 28.4579 20.238 28.4095C20.1101 28.3612 19.9705 28.3529 19.8378 28.3859C19.7051 28.4188 19.5855 28.4914 19.4951 28.594C19.2238 28.9019 18.8652 29.1199 18.467 29.219C18.0688 29.318 17.6499 29.2935 17.266 29.1485C16.8821 29.0035 16.5514 28.7451 16.3181 28.4075C16.0847 28.07 15.9597 27.6694 15.9597 27.259C15.9597 26.8486 16.0847 26.448 16.3181 26.1105C16.5514 25.7729 16.8821 25.5145 17.266 25.3695C17.6499 25.2245 18.0688 25.2 18.467 25.299C18.8652 25.3981 19.2238 25.6161 19.4951 25.9241C19.5855 26.0266 19.7051 26.0992 19.8378 26.1322C19.9705 26.1651 20.1101 26.1569 20.238 26.1085C20.366 26.0601 20.4761 25.974 20.5539 25.8615C20.6316 25.749 20.6732 25.6155 20.6732 25.4787V21.1998H23.6479C23.424 21.7121 23.3312 22.2721 23.378 22.8292C23.4247 23.3863 23.6095 23.923 23.9156 24.3909C24.2217 24.8587 24.6395 25.2429 25.1313 25.5088C25.6231 25.7747 26.1733 25.914 26.7324 25.914C27.2915 25.914 27.8417 25.7747 28.3335 25.5088C28.8253 25.2429 29.2431 24.8587 29.5492 24.3909C29.8553 23.923 30.0401 23.3863 30.0868 22.8292C30.1335 22.2721 30.0408 21.7121 29.8169 21.1998H32.7915V29.952H34.138V17.1604H36.1577C36.8717 17.1596 37.5562 16.8756 38.0611 16.3708C38.5659 15.8659 38.8499 15.1814 38.8507 14.4675V8.68719L40 7.53789L39.0479 6.58576L37.7014 7.93224C37.6389 7.99476 37.5893 8.06898 37.5555 8.15066C37.5216 8.23235 37.5042 8.31989 37.5042 8.40831V14.4675C37.5038 14.8244 37.3618 15.1667 37.1094 15.4191C36.857 15.6715 36.5147 15.8135 36.1577 15.8139H34.138V14.0731L35.2873 12.9238L34.3352 11.9717L31.3056 15.0013C31.164 15.1428 30.972 15.2224 30.7718 15.2224C30.5716 15.2224 30.3796 15.1428 30.238 15.0013C30.0965 14.8597 30.0169 14.6677 30.0169 14.4675C30.0169 14.2672 30.0965 14.0752 30.238 13.9337L33.2676 10.9041C33.3301 10.8416 33.3797 10.7674 33.4136 10.6857C33.4474 10.604 33.4648 10.5164 33.4648 10.428C33.4648 10.3396 33.4474 10.2521 33.4136 10.1704C33.3797 10.0887 33.3301 10.0145 33.2676 9.95196C32.6806 9.36351 32.3509 8.56625 32.3509 7.73507C32.3509 6.90388 32.6806 6.10663 33.2676 5.51817L36.6338 2.15198L35.6817 1.19985L32.3155 4.56605C31.5588 5.32478 31.0984 6.32919 31.0176 7.39774C30.9369 8.46629 31.241 9.52848 31.8751 10.3923L29.2859 12.9815C29.0894 13.1764 28.9333 13.4081 28.8266 13.6634C28.7198 13.9187 28.6646 14.1926 28.664 14.4693C28.6634 14.7461 28.7175 15.0202 28.8231 15.2759C28.9287 15.5317 29.0838 15.7641 29.2795 15.9598C29.4752 16.1555 29.7076 16.3106 29.9633 16.4162C30.2191 16.5218 30.4932 16.5759 30.77 16.5753C31.0467 16.5747 31.3206 16.5194 31.5759 16.4127C31.8312 16.306 32.0629 16.1499 32.2577 15.9534L32.7915 15.4196V19.8534H28.5126C28.3758 19.8534 28.2423 19.895 28.1298 19.9727C28.0173 20.0505 27.9312 20.1606 27.8828 20.2886C27.8345 20.4165 27.8262 20.5561 27.8592 20.6888C27.8921 20.8215 27.9647 20.9411 28.0673 21.0315C28.3752 21.3028 28.5933 21.6614 28.6923 22.0596C28.7914 22.4578 28.7669 22.8768 28.6219 23.2607C28.477 23.6446 28.2185 23.9752 27.8809 24.2086C27.5434 24.442 27.1428 24.567 26.7324 24.567C26.322 24.567 25.9214 24.442 25.5838 24.2086C25.2463 23.9752 24.9878 23.6446 24.8429 23.2607C24.6979 22.8768 24.6733 22.4578 24.7724 22.0596C24.8715 21.6614 25.0896 21.3028 25.3975 21.0315C25.5001 20.9411 25.5727 20.8215 25.6056 20.6888C25.6386 20.5561 25.6303 20.4165 25.582 20.2886C25.5336 20.1606 25.4475 20.0505 25.3349 19.9727C25.2224 19.895 25.0889 19.8534 24.9522 19.8534H20.6732V16.8788C21.1855 17.1027 21.7455 17.1954 22.3026 17.1486C22.8597 17.1018 23.3964 16.9171 23.8641 16.611C24.3319 16.3049 24.7161 15.8871 24.982 15.3953C25.2479 14.9035 25.3872 14.3533 25.3872 13.7942C25.3872 13.2352 25.2479 12.6849 24.982 12.1932C24.7161 11.7014 24.3319 11.2836 23.8641 10.9775C23.3964 10.6714 22.8597 10.4866 22.3026 10.4398C21.7455 10.3931 21.1855 10.4858 20.6732 10.7096V7.73507H29.4253V6.38859H16.6338V4.36887C16.633 3.6549 16.349 2.9704 15.8442 2.46555C15.3393 1.9607 14.6548 1.67672 13.9408 1.67591H8.1605L7.01128 0.526611L6.05915 1.47874L7.40563 2.82522C7.46815 2.88773 7.54237 2.93732 7.62405 2.97115C7.70573 3.00499 7.79328 3.0224 7.88169 3.02239H13.9408C14.2978 3.02282 14.6401 3.16481 14.8925 3.41723C15.1449 3.66966 15.2869 4.01189 15.2873 4.36887V6.38859H13.5465L12.3972 5.23928L11.4451 6.19141L14.4746 9.22099C14.5447 9.29109 14.6003 9.37431 14.6383 9.4659C14.6762 9.55748 14.6957 9.65565 14.6957 9.75478C14.6957 9.85392 14.6762 9.95208 14.6383 10.0437C14.6003 10.1353 14.5447 10.2185 14.4746 10.2886C14.4045 10.3587 14.3213 10.4143 14.2297 10.4522C14.1381 10.4902 14.04 10.5097 13.9408 10.5097C13.8417 10.5097 13.7435 10.4902 13.652 10.4522C13.5604 10.4143 13.4772 10.3587 13.4071 10.2886L10.3775 7.259C10.315 7.19648 10.2407 7.14689 10.1591 7.11305C10.0774 7.07922 9.98983 7.0618 9.90141 7.0618C9.813 7.0618 9.72545 7.07922 9.64377 7.11305C9.56208 7.14689 9.48786 7.19648 9.42535 7.259C9.13422 7.55014 8.78861 7.78107 8.40823 7.93863C8.02786 8.0962 7.62017 8.17729 7.20846 8.17729C6.79674 8.17729 6.38905 8.0962 6.00868 7.93863C5.6283 7.78107 5.28269 7.55014 4.99156 7.259L1.62537 3.89281L0.673239 4.84493L4.03943 8.21113C4.79761 8.96898 5.8022 9.43013 6.87113 9.51099C7.94006 9.59186 9.00259 9.28709 9.86615 8.65193L12.4549 11.2407C12.8496 11.632 13.3832 11.851 13.939 11.8498C14.4947 11.8486 15.0274 11.6273 15.4204 11.2343C15.8134 10.8413 16.0347 10.3087 16.0359 9.75291C16.0371 9.19714 15.8181 8.66354 15.4268 8.26886L14.893 7.73507H19.3268V12.0139C19.3267 12.1507 19.3684 12.2842 19.4461 12.3967C19.5239 12.5092 19.634 12.5954 19.762 12.6437C19.8899 12.6921 20.0295 12.7003 20.1622 12.6674C20.2949 12.6344 20.4145 12.5618 20.5049 12.4593C20.7762 12.1513 21.1348 11.9333 21.533 11.8342C21.9312 11.7352 22.3501 11.7598 22.734 11.9047C23.1179 12.0497 23.4486 12.3081 23.6819 12.6457C23.9153 12.9832 24.0403 13.3839 24.0403 13.7942C24.0403 14.2046 23.9153 14.6052 23.6819 14.9427C23.4486 15.2803 23.1179 15.5388 22.734 15.6837C22.3501 15.8287 21.9312 15.8533 21.533 15.7542C21.1348 15.6551 20.7762 15.4371 20.5049 15.1292C20.4145 15.0266 20.2949 14.954 20.1622 14.9211C20.0295 14.8881 19.8899 14.8964 19.762 14.9447C19.634 14.9931 19.5239 15.0792 19.4461 15.1917C19.3684 15.3042 19.3267 15.4378 19.3268 15.5745V19.8534H16.3521C16.576 19.3411 16.6688 18.7811 16.622 18.224C16.5753 17.6669 16.3905 17.1302 16.0844 16.6624C15.7783 16.1945 15.3605 15.8103 14.8687 15.5444C14.3769 15.2785 13.8267 15.1392 13.2676 15.1392C12.7085 15.1392 12.1583 15.2785 11.6665 15.5444C11.1747 15.8103 10.7569 16.1945 10.4508 16.6624C10.1447 17.1302 9.95994 17.6669 9.9132 18.224C9.86646 18.7811 9.95921 19.3411 10.1831 19.8534H7.20846V11.1013H5.86198V23.8928H3.84226C3.12829 23.8936 2.44379 24.1776 1.93894 24.6824C1.43408 25.1873 1.15011 25.8718 1.1493 26.5858V32.366L0 33.5153L0.952128 34.4675L2.29861 33.121C2.36112 33.0585 2.41071 32.9842 2.44454 32.9026C2.47837 32.8209 2.49578 32.7333 2.49578 32.6449V26.5858C2.4962 26.2288 2.6382 25.8865 2.89062 25.6341C3.14305 25.3817 3.48528 25.2397 3.84226 25.2393H5.86198V26.9801L4.71267 28.1294L5.6648 29.0815L8.69438 26.052C8.76448 25.9819 8.8477 25.9263 8.93929 25.8883C9.03087 25.8504 9.12904 25.8309 9.22817 25.8309C9.32731 25.8309 9.42547 25.8504 9.51706 25.8883C9.60865 25.9263 9.69187 25.9819 9.76197 26.052C9.83207 26.1221 9.88767 26.2053 9.92561 26.2969C9.96355 26.3885 9.98307 26.4866 9.98307 26.5858C9.98307 26.6849 9.96355 26.7831 9.92561 26.8746C9.88767 26.9662 9.83207 27.0495 9.76197 27.1196L6.73239 30.1491C6.66987 30.2116 6.62028 30.2859 6.58644 30.3676C6.55261 30.4492 6.53519 30.5368 6.53519 30.6252C6.53519 30.7136 6.55261 30.8012 6.58644 30.8828C6.62028 30.9645 6.66987 31.0387 6.73239 31.1013C7.31941 31.6897 7.64908 32.487 7.64908 33.3182C7.64908 34.1493 7.31941 34.9466 6.73239 35.535L3.3662 38.9012L4.31832 39.8534L7.68452 36.4872C8.44125 35.7284 8.90159 34.724 8.98236 33.6555C9.06312 32.5869 8.75898 31.5247 8.1249 30.6609L10.7141 28.0717C10.9106 27.8769 11.0667 27.6451 11.1734 27.3898C11.2802 27.1345 11.3354 26.8606 11.336 26.5839C11.3366 26.3072 11.2825 26.033 11.1769 25.7773C11.0713 25.5215 10.9162 25.2891 10.7205 25.0934C10.5248 24.8978 10.2924 24.7427 10.0367 24.637C9.78089 24.5314 9.50677 24.4773 9.23004 24.4779C8.95332 24.4785 8.67944 24.5338 8.42412 24.6405C8.16881 24.7472 7.93708 24.9033 7.74225 25.0998L7.20846 25.6336V21.1998H11.4874C11.6241 21.1999 11.7577 21.1582 11.8702 21.0805C11.9827 21.0027 12.0688 20.8926 12.1172 20.7647C12.1655 20.6367 12.1738 20.4971 12.1408 20.3644C12.1079 20.2317 12.0353 20.1121 11.9327 20.0217C11.6248 19.7505 11.4067 19.3919 11.3077 18.9936C11.2086 18.5954 11.2331 18.1765 11.3781 17.7925C11.523 17.4086 11.7815 17.078 12.1191 16.8446C12.4566 16.6113 12.8572 16.4862 13.2676 16.4862C13.678 16.4862 14.0786 16.6113 14.4162 16.8446C14.7537 17.078 15.0122 17.4086 15.1571 17.7925C15.3021 18.1765 15.3267 18.5954 15.2276 18.9936C15.1285 19.3919 14.9104 19.7505 14.6025 20.0217C14.4999 20.1121 14.4273 20.2317 14.3944 20.3644C14.3614 20.4971 14.3697 20.6367 14.418 20.7647C14.4664 20.8926 14.5525 21.0027 14.665 21.0805C14.7776 21.1582 14.9111 21.1999 15.0478 21.1998H19.3268V24.1744C18.8145 23.9506 18.2545 23.8578 17.6974 23.9046C17.1403 23.9514 16.6036 24.1362 16.1358 24.4423C15.668 24.7484 15.2839 25.1662 15.018 25.6579C14.752 26.1497 14.6128 26.7 14.6128 27.259C14.6128 27.8181 14.752 28.3683 15.018 28.8601C15.2839 29.3518 15.668 29.7696 16.1358 30.0757C16.6036 30.3819 17.1403 30.5666 17.6974 30.6134C18.2545 30.6602 18.8145 30.5674 19.3268 30.3436V33.3182H10.5747V34.6646H23.3662V36.6843C23.367 37.3983 23.651 38.0828 24.1558 38.5877C24.6607 39.0925 25.3452 39.3765 26.0592 39.3773H31.8395L32.9887 40.5266L33.9408 39.5745L32.5944 38.228C32.5318 38.1655 32.4576 38.1159 32.3759 38.0821C32.2943 38.0482 32.2067 38.0308 32.1183 38.0308H26.0592C25.7022 38.0304 25.3599 37.8884 25.1075 37.636C24.8551 37.3836 24.7131 37.0413 24.7127 36.6843V34.6646H26.4535L27.6028 35.8139L28.5549 34.8618L25.5254 31.8322C25.4553 31.7621 25.3997 31.6789 25.3617 31.5873C25.3238 31.4957 25.3043 31.3976 25.3043 31.2984C25.3043 31.1993 25.3238 31.1011 25.3617 31.0096C25.3997 30.918 25.4553 30.8347 25.5254 30.7646C25.5955 30.6945 25.6787 30.6389 25.7703 30.601C25.8619 30.5631 25.96 30.5435 26.0592 30.5435C26.1583 30.5435 26.2565 30.5631 26.348 30.601C26.4396 30.6389 26.5228 30.6945 26.5929 30.7646L29.6225 33.7942C29.685 33.8567 29.7593 33.9063 29.8409 33.9402C29.9226 33.974 30.0102 33.9914 30.0986 33.9914C30.187 33.9914 30.2745 33.974 30.3562 33.9402C30.4379 33.9063 30.5121 33.8567 30.5747 33.7942C30.8658 33.5031 31.2114 33.2721 31.5918 33.1146C31.9721 32.957 32.3798 32.8759 32.7915 32.8759C33.2033 32.8759 33.6109 32.957 33.9913 33.1146C34.3717 33.2721 34.7173 33.5031 35.0084 33.7942L38.3746 37.1604L39.3268 36.2083L35.9606 32.8421C35.5454 32.4246 35.0515 32.0937 34.5075 31.8683C33.9636 31.643 33.3803 31.5278 32.7915 31.5294Z" fill="#501464"/>
</svg>
